<?xml version="1.0" encoding="UTF-8"?>
<!DOCTYPE svg PUBLIC "-//W3C//DTD SVG 1.1//EN" "http://www.w3.org/Graphics/SVG/1.1/DTD/svg11.dtd">
<svg xmlns="http://www.w3.org/2000/svg" version="1.1" width="677px" height="369px" style="shape-rendering:geometricPrecision; text-rendering:geometricPrecision; image-rendering:optimizeQuality; fill-rule:evenodd; clip-rule:evenodd" xmlns:xlink="http://www.w3.org/1999/xlink">
<g><path style="opacity:1" fill="#685a5a" d="M 322.5,27.5 C 322.33,28.8221 322.663,29.9887 323.5,31C 322.915,32.3024 322.249,33.469 321.5,34.5C 320.292,31.9276 320.625,29.5943 322.5,27.5 Z"/></g>
<g><path style="opacity:1" fill="#d2c5c5" d="M 388.5,29.5 C 391.428,29.5651 394.095,30.2318 396.5,31.5C 393.505,31.7062 390.838,31.0395 388.5,29.5 Z"/></g>
<g><path style="opacity:1" fill="#350a0d" d="M 378.5,34.5 C 365.656,34.1713 352.989,34.5046 340.5,35.5C 339.326,36.5137 338.66,37.847 338.5,39.5C 337.609,40.1098 336.609,40.4431 335.5,40.5C 335.5,39.5 335.5,38.5 335.5,37.5C 330.106,38.6918 324.773,40.1918 319.5,42C 311.133,46.2134 303.466,51.3801 296.5,57.5C 297.531,54.6121 299.198,52.1121 301.5,50C 299.942,49.79 298.609,49.29 297.5,48.5C 297.833,47.8333 298.167,47.1667 298.5,46.5C 300.027,46.573 301.027,45.9063 301.5,44.5C 307.646,40.0937 314.313,36.7603 321.5,34.5C 322.841,36.12 324.674,37.12 327,37.5C 327.64,35.6016 328.973,35.2683 331,36.5C 331.833,36.1667 332.667,35.8333 333.5,35.5C 331.025,35.0358 329.025,34.0358 327.5,32.5C 326.853,31.7261 326.52,30.7261 326.5,29.5C 327.079,27.3848 327.912,25.3848 329,23.5C 332.735,24.4756 338.235,24.4756 345.5,23.5C 344.432,28.7005 346.432,32.0339 351.5,33.5C 358.22,32.7365 364.886,32.4032 371.5,32.5C 374.155,32.4404 376.489,33.1071 378.5,34.5 Z"/></g>
<g><path style="opacity:1" fill="#ee736c" d="M 340.5,35.5 C 352.838,35.3335 365.171,35.5001 377.5,36C 382.456,38.775 387.79,40.1084 393.5,40C 398.51,42.5025 403.176,45.5025 407.5,49C 409.415,51.3996 411.081,53.8996 412.5,56.5C 400.964,46.0919 387.297,40.7586 371.5,40.5C 368.095,39.1204 364.428,38.4537 360.5,38.5C 353.184,39.2489 345.851,39.5823 338.5,39.5C 338.66,37.847 339.326,36.5137 340.5,35.5 Z"/></g>
<g><path style="opacity:1" fill="#d83130" d="M 371.5,40.5 C 387.297,40.7586 400.964,46.0919 412.5,56.5C 414.367,57.7598 415.7,59.4265 416.5,61.5C 412.64,62.6441 408.64,63.3107 404.5,63.5C 401.055,64.1489 397.889,65.4823 395,67.5C 394.333,66.1667 394.333,64.8333 395,63.5C 396.918,62.4582 398.751,61.2915 400.5,60C 395.992,60.6779 392.159,62.8446 389,66.5C 388.517,67.448 388.351,68.448 388.5,69.5C 390.5,69.1667 392.5,68.8333 394.5,68.5C 394.5,69.8333 394.5,71.1667 394.5,72.5C 393.945,75.096 392.945,77.4293 391.5,79.5C 390.318,87.6805 390.318,96.0138 391.5,104.5C 388.656,105.058 385.822,105.725 383,106.5C 378.529,105.487 374.029,105.321 369.5,106C 368.584,106.278 367.918,106.778 367.5,107.5C 362.078,109.198 356.745,110.865 351.5,112.5C 349.533,112.739 347.699,112.406 346,111.5C 343.902,105.037 341.735,98.7035 339.5,92.5C 337.532,85.2911 336.198,77.9578 335.5,70.5C 335.5,69.1667 335.5,67.8333 335.5,66.5C 331.738,66.3064 330.071,68.1398 330.5,72C 330.489,77.8583 332.156,83.0249 335.5,87.5C 335.5,88.1667 335.5,88.8333 335.5,89.5C 336.907,97.486 337.741,105.486 338,113.5C 337,113.167 336,112.833 335,112.5C 333.705,113.841 333.205,115.174 333.5,116.5C 330.686,110.719 327.686,105.052 324.5,99.5C 325.721,95.9465 325.721,92.4465 324.5,89C 322.924,88.5604 321.59,87.727 320.5,86.5C 317.933,86.7777 315.267,86.9444 312.5,87C 310.631,90.3176 309.298,93.8176 308.5,97.5C 308.5,98.8333 308.5,100.167 308.5,101.5C 307.448,101.649 306.448,101.483 305.5,101C 301.668,95.2015 297.668,95.0348 293.5,100.5C 292.5,100.5 291.5,100.5 290.5,100.5C 289.966,86.5518 292.299,73.2185 297.5,60.5C 307.927,52.1195 319.594,46.1195 332.5,42.5C 331.769,46.3632 330.769,50.1965 329.5,54C 330.205,56.707 331.705,58.8736 334,60.5C 334.667,59.8333 335.333,59.1667 336,58.5C 335.405,51.8415 337.238,46.0082 341.5,41C 351.494,40.5002 361.494,40.3335 371.5,40.5 Z"/></g>
<g><path style="opacity:1" fill="#3a0a0c" d="M 381.5,35.5 C 389.989,34.8909 397.489,37.2242 404,42.5C 406.578,38.7643 409.411,38.2643 412.5,41C 414.833,41.3333 417.167,41.6667 419.5,42C 420.423,44.0408 420.756,46.2075 420.5,48.5C 421.93,48.5792 423.264,48.2458 424.5,47.5C 424.736,48.2472 425.07,49.0805 425.5,50C 427.221,50.7393 428.887,51.5726 430.5,52.5C 429.691,54.0709 429.357,55.7376 429.5,57.5C 422.733,51.7437 415.4,46.7437 407.5,42.5C 406.537,42.9698 406.537,43.6365 407.5,44.5C 407.5,45.1667 407.167,45.5 406.5,45.5C 398.903,40.1974 390.57,36.8641 381.5,35.5 Z"/></g>
<g><path style="opacity:1" fill="#b5abaf" d="M 441.5,43.5 C 440.222,43.7822 439.222,44.4489 438.5,45.5C 438.5,44.5 438.5,43.5 438.5,42.5C 439.791,42.2627 440.791,42.596 441.5,43.5 Z"/></g>
<g><path style="opacity:1" fill="#600809" d="M 338.5,39.5 C 336.651,44.7617 334.984,50.095 333.5,55.5C 332.636,51.1238 332.969,46.7904 334.5,42.5C 334.833,41.8333 335.167,41.1667 335.5,40.5C 336.609,40.4431 337.609,40.1098 338.5,39.5 Z"/></g>
<g><path style="opacity:1" fill="#b7a6a6" d="M 301.5,44.5 C 301.027,45.9063 300.027,46.573 298.5,46.5C 298.973,45.0937 299.973,44.427 301.5,44.5 Z"/></g>
<g><path style="opacity:1" fill="#b6aba7" d="M 443.5,44.5 C 444.89,45.8993 445.89,47.5659 446.5,49.5C 444.273,48.5994 443.273,46.9328 443.5,44.5 Z"/></g>
<g><path style="opacity:1" fill="#da6f6a" d="M 335.5,40.5 C 335.167,41.1667 334.833,41.8333 334.5,42.5C 333.833,42.5 333.167,42.5 332.5,42.5C 319.594,46.1195 307.927,52.1195 297.5,60.5C 296.167,61.5 294.833,62.5 293.5,63.5C 293.557,62.391 293.89,61.391 294.5,60.5C 295.167,59.5 295.833,58.5 296.5,57.5C 303.466,51.3801 311.133,46.2134 319.5,42C 324.773,40.1918 330.106,38.6918 335.5,37.5C 335.5,38.5 335.5,39.5 335.5,40.5 Z"/></g>
<g><path style="opacity:1" fill="#a79898" d="M 298.5,46.5 C 298.167,47.1667 297.833,47.8333 297.5,48.5C 296.833,48.5 296.167,48.5 295.5,48.5C 295.973,47.0937 296.973,46.427 298.5,46.5 Z"/></g>
<g><path style="opacity:1" fill="#ca3535" d="M 371.5,40.5 C 361.494,40.3335 351.494,40.5002 341.5,41C 337.238,46.0082 335.405,51.8415 336,58.5C 335.333,59.1667 334.667,59.8333 334,60.5C 331.705,58.8736 330.205,56.707 329.5,54C 330.769,50.1965 331.769,46.3632 332.5,42.5C 333.167,42.5 333.833,42.5 334.5,42.5C 332.969,46.7904 332.636,51.1238 333.5,55.5C 334.984,50.095 336.651,44.7617 338.5,39.5C 345.851,39.5823 353.184,39.2489 360.5,38.5C 364.428,38.4537 368.095,39.1204 371.5,40.5 Z"/></g>
<g><path style="opacity:1" fill="#dc7872" d="M 340.5,35.5 C 352.989,34.5046 365.656,34.1713 378.5,34.5C 379.209,35.404 380.209,35.7373 381.5,35.5C 390.57,36.8641 398.903,40.1974 406.5,45.5C 409.833,49.3373 413,53.3373 416,57.5C 416.429,55.3313 415.929,53.3313 414.5,51.5C 412.327,48.932 409.994,46.5987 407.5,44.5C 406.537,43.6365 406.537,42.9698 407.5,42.5C 415.4,46.7437 422.733,51.7437 429.5,57.5C 430.525,57.8966 430.692,58.5632 430,59.5C 428.887,60.305 427.721,60.9717 426.5,61.5C 423.167,61.5 419.833,61.5 416.5,61.5C 415.7,59.4265 414.367,57.7598 412.5,56.5C 411.081,53.8996 409.415,51.3996 407.5,49C 403.176,45.5025 398.51,42.5025 393.5,40C 387.79,40.1084 382.456,38.775 377.5,36C 365.171,35.5001 352.838,35.3335 340.5,35.5 Z"/></g>
<g><path style="opacity:1" fill="#93453f" d="M 407.5,44.5 C 409.994,46.5987 412.327,48.932 414.5,51.5C 415.929,53.3313 416.429,55.3313 416,57.5C 413,53.3373 409.833,49.3373 406.5,45.5C 407.167,45.5 407.5,45.1667 407.5,44.5 Z"/></g>
<g><path style="opacity:1" fill="#635051" d="M 446.5,50.5 C 448.974,52.8976 450.308,55.8976 450.5,59.5C 448.063,57.0827 446.73,54.0827 446.5,50.5 Z"/></g>
<g><path style="opacity:1" fill="#570d16" d="M 294.5,60.5 C 293.89,61.391 293.557,62.391 293.5,63.5C 289.296,66.0387 286.63,69.7054 285.5,74.5C 283.01,78.4465 281.176,82.7798 280,87.5C 279.228,82.6158 279.728,77.9492 281.5,73.5C 280.041,73.4326 278.708,73.7659 277.5,74.5C 279.144,72.5193 280.81,70.5193 282.5,68.5C 284.539,67.089 285.539,65.089 285.5,62.5C 287.467,62.2606 289.301,62.5939 291,63.5C 291.759,61.9371 292.926,60.9371 294.5,60.5 Z"/></g>
<g><path style="opacity:1" fill="#4f0f11" d="M 416.5,61.5 C 419.833,61.5 423.167,61.5 426.5,61.5C 421.467,62.4511 416.3,63.4511 411,64.5C 408.937,66.0762 406.77,67.4096 404.5,68.5C 402.167,69.1667 399.833,69.8333 397.5,70.5C 397.369,69.7611 397.536,69.0944 398,68.5C 400.326,66.9343 402.492,65.2676 404.5,63.5C 408.64,63.3107 412.64,62.6441 416.5,61.5 Z"/></g>
<g><path style="opacity:1" fill="#8a7b7d" d="M 281.5,59.5 C 280.167,62.8333 277.833,65.1667 274.5,66.5C 276.5,63.8333 278.833,61.5 281.5,59.5 Z"/></g>
<g><path style="opacity:1" fill="#2c0e10" d="M 295.5,48.5 C 296.167,48.5 296.833,48.5 297.5,48.5C 298.609,49.29 299.942,49.79 301.5,50C 299.198,52.1121 297.531,54.6121 296.5,57.5C 295.833,58.5 295.167,59.5 294.5,60.5C 292.926,60.9371 291.759,61.9371 291,63.5C 289.301,62.5939 287.467,62.2606 285.5,62.5C 285.539,65.089 284.539,67.089 282.5,68.5C 279.951,69.5091 277.285,70.3425 274.5,71C 275.236,73.0206 274.403,74.5206 272,75.5C 271.339,79.0074 269.505,81.674 266.5,83.5C 265.167,82.1667 263.833,82.1667 262.5,83.5C 261.786,86.0272 261.12,88.5272 260.5,91C 261.308,91.3076 261.975,91.8076 262.5,92.5C 261.724,94.3559 260.391,95.6893 258.5,96.5C 258.63,98.4226 258.964,100.256 259.5,102C 257.984,103.897 257.317,106.064 257.5,108.5C 256.518,105.038 256.185,101.371 256.5,97.5C 256.883,92.1826 258.383,87.1826 261,82.5C 264.959,76.7075 269.459,71.3742 274.5,66.5C 277.833,65.1667 280.167,62.8333 281.5,59.5C 285.804,55.351 290.47,51.6843 295.5,48.5 Z"/></g>
<g><path style="opacity:1" fill="#a92423" d="M 404.5,63.5 C 402.492,65.2676 400.326,66.9343 398,68.5C 397.536,69.0944 397.369,69.7611 397.5,70.5C 396.5,70.8333 395.833,71.5 395.5,72.5C 395.167,72.5 394.833,72.5 394.5,72.5C 394.5,71.1667 394.5,69.8333 394.5,68.5C 392.5,68.8333 390.5,69.1667 388.5,69.5C 388.351,68.448 388.517,67.448 389,66.5C 392.159,62.8446 395.992,60.6779 400.5,60C 398.751,61.2915 396.918,62.4582 395,63.5C 394.333,64.8333 394.333,66.1667 395,67.5C 397.889,65.4823 401.055,64.1489 404.5,63.5 Z"/></g>
<g><path style="opacity:1" fill="#ba2f30" d="M 335.5,70.5 C 334.883,70.3893 334.383,70.056 334,69.5C 333.268,75.6162 333.768,81.6162 335.5,87.5C 332.156,83.0249 330.489,77.8583 330.5,72C 330.071,68.1398 331.738,66.3064 335.5,66.5C 335.5,67.8333 335.5,69.1667 335.5,70.5 Z"/></g>
<g><path style="opacity:1" fill="#500307" d="M 335.5,70.5 C 336.198,77.9578 337.532,85.2911 339.5,92.5C 340.008,95.1761 340.175,97.8428 340,100.5C 339.617,99.944 339.117,99.6107 338.5,99.5C 338.101,95.8835 337.101,92.5502 335.5,89.5C 335.5,88.8333 335.5,88.1667 335.5,87.5C 333.768,81.6162 333.268,75.6162 334,69.5C 334.383,70.056 334.883,70.3893 335.5,70.5 Z"/></g>
<g><path style="opacity:1" fill="#690708" d="M 384.5,79.5 C 385.647,83.6463 385.814,87.9796 385,92.5C 383.236,88.2046 383.069,83.8712 384.5,79.5 Z"/></g>
<g><path style="opacity:1" fill="#a61f2f" d="M 297.5,60.5 C 292.299,73.2185 289.966,86.5518 290.5,100.5C 291.5,100.5 292.5,100.5 293.5,100.5C 292.972,101.721 292.305,102.887 291.5,104C 295.114,106.944 296.447,110.777 295.5,115.5C 295.162,119.687 293.495,123.187 290.5,126C 289.207,126.49 287.873,126.657 286.5,126.5C 285.007,117.29 283.34,106.123 281.5,93C 282.758,86.8039 284.091,80.6372 285.5,74.5C 286.63,69.7054 289.296,66.0387 293.5,63.5C 294.833,62.5 296.167,61.5 297.5,60.5 Z"/></g>
<g><path style="opacity:1" fill="#46060b" d="M 394.5,72.5 C 394.833,72.5 395.167,72.5 395.5,72.5C 394.922,76.6563 393.922,80.6563 392.5,84.5C 392.763,87.0278 393.596,89.3611 395,91.5C 396.507,90.4652 398.007,90.6319 399.5,92C 409.056,92.0598 418.39,92.8931 427.5,94.5C 421.509,94.0343 415.509,93.701 409.5,93.5C 405.5,93.5 401.5,93.5 397.5,93.5C 397.5,96.5 397.5,99.5 397.5,102.5C 396.835,100.302 396.168,97.9688 395.5,95.5C 394.671,100.467 394.171,105.467 394,110.5C 389.934,111.464 385.767,111.797 381.5,111.5C 381.5,111.167 381.5,110.833 381.5,110.5C 385.437,110.793 389.27,110.46 393,109.5C 392.894,99.4962 392.394,89.4962 391.5,79.5C 392.945,77.4293 393.945,75.096 394.5,72.5 Z"/></g>
<g><path style="opacity:1" fill="#cf6461" d="M 409.5,94.5 C 409.5,94.1667 409.5,93.8333 409.5,93.5C 415.509,93.701 421.509,94.0343 427.5,94.5C 433.963,95.4126 439.963,97.4126 445.5,100.5C 446.299,103.43 446.632,106.43 446.5,109.5C 446.167,109.5 445.833,109.5 445.5,109.5C 445.795,105.923 444.795,102.757 442.5,100C 438.656,99.7637 434.989,98.9303 431.5,97.5C 424.219,96.141 416.885,95.141 409.5,94.5 Z"/></g>
<g><path style="opacity:1" fill="#a31e31" d="M 279.5,116.5 C 280.647,122.858 281.981,129.191 283.5,135.5C 283.394,138.079 284.061,140.412 285.5,142.5C 283.031,143.317 280.365,143.817 277.5,144C 275.246,145.256 272.912,146.423 270.5,147.5C 267.496,140.48 266.163,133.147 266.5,125.5C 266.636,116.302 267.136,107.302 268,98.5C 268.249,99.624 268.749,100.624 269.5,101.5C 269.833,101.333 270.167,101.167 270.5,101C 271.15,98.5438 272.15,96.2105 273.5,94C 272.65,92.7141 271.483,92.8808 270,94.5C 266.887,91.6832 267.054,88.8498 270.5,86C 271.635,85.2506 272.635,85.4173 273.5,86.5C 274.333,88.1667 275.167,89.8333 276,91.5C 276.333,98.1667 276.667,104.833 277,111.5C 277.985,113.175 278.819,114.842 279.5,116.5 Z"/></g>
<g><path style="opacity:1" fill="#d9302f" d="M 409.5,94.5 C 416.885,95.141 424.219,96.141 431.5,97.5C 431.67,98.8221 431.337,99.9887 430.5,101C 432.425,100.865 434.425,100.698 436.5,100.5C 436.509,102.308 436.009,103.975 435,105.5C 431.288,105.006 427.454,105.006 423.5,105.5C 420.833,105.333 418.167,105.167 415.5,105C 417.911,104.802 419.577,103.636 420.5,101.5C 420.253,100.287 419.586,99.62 418.5,99.5C 417.5,99.5 416.5,99.5 415.5,99.5C 414.549,100.919 414.216,102.585 414.5,104.5C 413.167,104.5 411.833,104.5 410.5,104.5C 410.795,102.265 410.461,100.265 409.5,98.5C 408.833,98.5 408.167,98.5 407.5,98.5C 405.111,96.3967 405.777,95.0634 409.5,94.5 Z"/></g>
<g><path style="opacity:1" fill="#7d6c6b" d="M 457.5,97.5 C 458.738,99.2143 459.405,101.214 459.5,103.5C 457.72,102.01 457.054,100.01 457.5,97.5 Z"/></g>
<g><path style="opacity:1" fill="#961f2c" d="M 409.5,93.5 C 409.5,93.8333 409.5,94.1667 409.5,94.5C 405.777,95.0634 405.111,96.3967 407.5,98.5C 408.167,98.5 408.833,98.5 409.5,98.5C 409.232,101.119 409.565,103.619 410.5,106C 414.025,106.179 417.359,106.679 420.5,107.5C 413.5,107.5 406.5,107.5 399.5,107.5C 399.768,105.901 399.434,104.568 398.5,103.5C 398.5,102.833 398.167,102.5 397.5,102.5C 397.5,99.5 397.5,96.5 397.5,93.5C 401.5,93.5 405.5,93.5 409.5,93.5 Z"/></g>
<g><path style="opacity:1" fill="#420101" d="M 407.5,98.5 C 408.234,99.7079 408.567,101.041 408.5,102.5C 407.167,102.5 405.833,102.5 404.5,102.5C 404.5,101.167 404.5,99.8333 404.5,98.5C 405.5,98.5 406.5,98.5 407.5,98.5 Z"/></g>
<g><path style="opacity:1" fill="#311113" d="M 388.5,29.5 C 390.838,31.0395 393.505,31.7062 396.5,31.5C 407.702,33.7848 417.702,38.4515 426.5,45.5C 426.5,47.5 427.5,48.5 429.5,48.5C 430.728,49.3065 431.728,50.3065 432.5,51.5C 433.053,53.5518 434.053,53.8852 435.5,52.5C 436.695,50.2487 437.695,47.9154 438.5,45.5C 439.222,44.4489 440.222,43.7822 441.5,43.5C 442.167,43.8333 442.833,44.1667 443.5,44.5C 443.273,46.9328 444.273,48.5994 446.5,49.5C 446.5,49.8333 446.5,50.1667 446.5,50.5C 446.73,54.0827 448.063,57.0827 450.5,59.5C 451.821,63.2326 451.821,67.0659 450.5,71C 454.217,72.1798 457.884,73.5131 461.5,75C 463.227,76.3894 464.561,78.0561 465.5,80C 465.095,80.9454 464.428,81.6121 463.5,82C 460.487,82.5022 457.487,83.0022 454.5,83.5C 455.5,88.1667 456.5,92.8333 457.5,97.5C 457.054,100.01 457.72,102.01 459.5,103.5C 461.392,109.246 461.892,115.246 461,121.5C 460.338,122.984 459.504,124.317 458.5,125.5C 457.142,127.743 457.808,129.409 460.5,130.5C 461.5,131.833 462.5,133.167 463.5,134.5C 463.66,136.153 464.326,137.486 465.5,138.5C 466.833,141.167 466.833,143.833 465.5,146.5C 464.326,147.514 463.66,148.847 463.5,150.5C 461.074,155.02 458.907,159.687 457,164.5C 456.403,167.681 456.903,170.681 458.5,173.5C 458.595,175.786 459.262,177.786 460.5,179.5C 468.49,183.627 470.657,189.96 467,198.5C 465.542,200.96 463.709,203.127 461.5,205C 463.16,206.488 464.16,208.321 464.5,210.5C 465.314,215.119 465.647,219.786 465.5,224.5C 465.683,226.936 465.016,229.103 463.5,231C 461.648,231.773 460.314,231.273 459.5,229.5C 458.053,228.115 457.053,228.448 456.5,230.5C 456.5,232.833 456.5,235.167 456.5,237.5C 456.171,240.228 456.837,242.562 458.5,244.5C 461.081,251.472 465.081,257.638 470.5,263C 468.974,264.887 466.974,265.887 464.5,266C 466.871,269.192 468.537,272.692 469.5,276.5C 469.733,279.542 470.733,282.208 472.5,284.5C 473.833,288.5 473.833,292.5 472.5,296.5C 471.262,298.214 470.595,300.214 470.5,302.5C 470.02,305.443 469.02,308.11 467.5,310.5C 467.167,310.5 466.833,310.5 466.5,310.5C 466.854,308.459 466.854,306.626 466.5,305C 468.891,303.691 468.891,302.691 466.5,302C 468.679,301.558 469.345,300.558 468.5,299C 471.36,295.319 472.193,291.152 471,286.5C 470.333,287.833 469.667,287.833 469,286.5C 467.874,283.277 467.707,280.111 468.5,277C 466.892,276.342 465.725,276.842 465,278.5C 464.583,277.244 463.75,276.577 462.5,276.5C 459.831,271.162 457.164,265.829 454.5,260.5C 455.833,259.833 457.167,259.167 458.5,258.5C 454.395,252.641 451.729,246.308 450.5,239.5C 450.819,234.637 450.486,229.97 449.5,225.5C 448.942,224.21 447.942,223.377 446.5,223C 447.737,222.768 448.737,222.268 449.5,221.5C 452.455,222.159 455.455,222.492 458.5,222.5C 458.56,223.043 458.893,223.376 459.5,223.5C 460.48,220.914 460.813,218.247 460.5,215.5C 464.607,212.606 464.274,210.106 459.5,208C 459.957,207.586 460.291,207.086 460.5,206.5C 458.711,205.377 458.378,204.044 459.5,202.5C 460.086,202.709 460.586,203.043 461,203.5C 462.155,200.059 463.655,196.892 465.5,194C 465.463,191.167 464.129,189.333 461.5,188.5C 461.043,186.227 459.71,184.894 457.5,184.5C 454.251,182.972 450.918,181.639 447.5,180.5C 447.573,178.973 446.906,177.973 445.5,177.5C 442.582,170.336 440.248,163.002 438.5,155.5C 439.511,151.144 441.344,147.144 444,143.5C 444.246,140.11 444.746,136.777 445.5,133.5C 448.319,133.258 451.319,133.258 454.5,133.5C 454.737,132.209 454.404,131.209 453.5,130.5C 452.669,127.341 451.669,124.341 450.5,121.5C 449.027,119.605 447.36,117.939 445.5,116.5C 445.389,115.883 445.056,115.383 444.5,115C 447.334,112.816 448.668,113.316 448.5,116.5C 450.833,116.5 453.167,116.5 455.5,116.5C 455.319,113.603 455.652,110.77 456.5,108C 454.061,105.446 454.061,102.946 456.5,100.5C 453.41,96.5539 451.077,92.2206 449.5,87.5C 447.748,87.4176 446.748,88.2509 446.5,90C 447.148,91.4397 447.481,92.9397 447.5,94.5C 447.975,97.0821 447.308,99.0821 445.5,100.5C 439.963,97.4126 433.963,95.4126 427.5,94.5C 418.39,92.8931 409.056,92.0598 399.5,92C 398.007,90.6319 396.507,90.4652 395,91.5C 393.596,89.3611 392.763,87.0278 392.5,84.5C 393.922,80.6563 394.922,76.6563 395.5,72.5C 395.833,71.5 396.5,70.8333 397.5,70.5C 399.833,69.8333 402.167,69.1667 404.5,68.5C 406.77,67.4096 408.937,66.0762 411,64.5C 416.3,63.4511 421.467,62.4511 426.5,61.5C 427.721,60.9717 428.887,60.305 430,59.5C 430.692,58.5632 430.525,57.8966 429.5,57.5C 429.357,55.7376 429.691,54.0709 430.5,52.5C 428.887,51.5726 427.221,50.7393 425.5,50C 425.07,49.0805 424.736,48.2472 424.5,47.5C 423.264,48.2458 421.93,48.5792 420.5,48.5C 420.756,46.2075 420.423,44.0408 419.5,42C 417.167,41.6667 414.833,41.3333 412.5,41C 409.411,38.2643 406.578,38.7643 404,42.5C 397.489,37.2242 389.989,34.8909 381.5,35.5C 380.209,35.7373 379.209,35.404 378.5,34.5C 376.489,33.1071 374.155,32.4404 371.5,32.5C 364.886,32.4032 358.22,32.7365 351.5,33.5C 346.432,32.0339 344.432,28.7005 345.5,23.5C 338.235,24.4756 332.735,24.4756 329,23.5C 327.912,25.3848 327.079,27.3848 326.5,29.5C 326.52,30.7261 326.853,31.7261 327.5,32.5C 329.025,34.0358 331.025,35.0358 333.5,35.5C 332.667,35.8333 331.833,36.1667 331,36.5C 328.973,35.2683 327.64,35.6016 327,37.5C 324.674,37.12 322.841,36.12 321.5,34.5C 322.249,33.469 322.915,32.3024 323.5,31C 322.663,29.9887 322.33,28.8221 322.5,27.5C 323.254,24.909 324.921,23.0757 327.5,22C 334.57,18.8532 341.57,18.8532 348.5,22C 349.5,23.6667 350.5,25.3333 351.5,27C 363.899,27.1174 376.232,27.9507 388.5,29.5 Z"/></g>
<g><path style="opacity:1" fill="#59331e" d="M 420.5,69.5 C 419.048,70.7131 417.714,70.3797 416.5,68.5C 410.074,70.3708 405.574,74.3708 403,80.5C 402.251,81.635 402.417,82.635 403.5,83.5C 405.465,79.6545 408.465,77.8212 412.5,78C 411.424,79.7261 411.257,81.5594 412,83.5C 412.725,84.0585 413.558,84.3918 414.5,84.5C 418.398,83.025 422.398,81.8583 426.5,81C 430.266,78.239 433.766,75.0724 437,71.5C 438.076,76.0748 437.242,80.2415 434.5,84C 434.833,84.5 435.167,85 435.5,85.5C 439.126,83.029 443.126,82.029 447.5,82.5C 444.351,85.4736 441.685,88.8069 439.5,92.5C 425.699,89.1149 411.699,87.7816 397.5,88.5C 397.335,84.8183 397.501,81.1516 398,77.5C 399.699,74.079 401.865,71.079 404.5,68.5C 408.906,68.3525 413.239,67.6859 417.5,66.5C 419.666,66.4296 419.999,67.0962 418.5,68.5C 418.957,69.2975 419.624,69.6309 420.5,69.5 Z"/></g>
<g><path style="opacity:1" fill="#370f0a" d="M 440.5,53.5 C 442.464,52.8058 444.298,52.8058 446,53.5C 446.006,59.3421 445.84,65.1755 445.5,71C 446.833,72 448.167,73 449.5,74C 452.754,74.2503 455.754,75.2503 458.5,77C 457.167,77.6667 457.167,78.3333 458.5,79C 456.616,79.2163 454.949,79.883 453.5,81C 453.833,81.3333 454.167,81.6667 454.5,82C 452.45,83.3318 450.45,83.4985 448.5,82.5C 449.747,80.822 451.414,79.4887 453.5,78.5C 449.861,77.5397 446.195,77.5397 442.5,78.5C 442.878,76.079 443.545,73.7457 444.5,71.5C 444.851,65.7383 444.351,60.0716 443,54.5C 442.329,53.7476 441.496,53.4142 440.5,53.5 Z"/></g>
<g><path style="opacity:1" fill="#865531" d="M 444.5,71.5 C 443.545,73.7457 442.878,76.079 442.5,78.5C 446.195,77.5397 449.861,77.5397 453.5,78.5C 451.414,79.4887 449.747,80.822 448.5,82.5C 448.167,82.5 447.833,82.5 447.5,82.5C 443.126,82.029 439.126,83.029 435.5,85.5C 435.167,85 434.833,84.5 434.5,84C 437.242,80.2415 438.076,76.0748 437,71.5C 433.766,75.0724 430.266,78.239 426.5,81C 422.398,81.8583 418.398,83.025 414.5,84.5C 413.558,84.3918 412.725,84.0585 412,83.5C 411.257,81.5594 411.424,79.7261 412.5,78C 408.465,77.8212 405.465,79.6545 403.5,83.5C 402.417,82.635 402.251,81.635 403,80.5C 405.574,74.3708 410.074,70.3708 416.5,68.5C 417.714,70.3797 419.048,70.7131 420.5,69.5C 420.833,69.5 421.167,69.5 421.5,69.5C 424.405,70.7005 427.405,70.5339 430.5,69C 434.471,66.8577 437.805,64.0244 440.5,60.5C 441.137,64.5715 441.971,68.5715 443,72.5C 443.383,71.944 443.883,71.6107 444.5,71.5 Z"/></g>
<g><path style="opacity:1" fill="#b0815a" d="M 440.5,53.5 C 441.496,53.4142 442.329,53.7476 443,54.5C 444.351,60.0716 444.851,65.7383 444.5,71.5C 443.883,71.6107 443.383,71.944 443,72.5C 441.971,68.5715 441.137,64.5715 440.5,60.5C 437.805,64.0244 434.471,66.8577 430.5,69C 427.405,70.5339 424.405,70.7005 421.5,69.5C 430.073,66.7286 436.407,61.3952 440.5,53.5 Z"/></g>
<g><path style="opacity:1" fill="#bcb0b0" d="M 432.5,51.5 C 433.391,52.1098 434.391,52.4431 435.5,52.5C 434.053,53.8852 433.053,53.5518 432.5,51.5 Z"/></g>
<g><path style="opacity:1" fill="#a6989b" d="M 426.5,45.5 C 427.833,46.1667 428.833,47.1667 429.5,48.5C 427.5,48.5 426.5,47.5 426.5,45.5 Z"/></g>
<g><path style="opacity:1" fill="#9f353a" d="M 327.5,32.5 C 327.901,28.9302 329.901,26.7636 333.5,26C 336.833,25.3333 340.167,25.3333 343.5,26C 343.957,26.414 344.291,26.914 344.5,27.5C 339,29.6262 333.334,31.2929 327.5,32.5 Z"/></g>
<g><path style="opacity:1" fill="#c72f2f" d="M 431.5,97.5 C 434.989,98.9303 438.656,99.7637 442.5,100C 444.795,102.757 445.795,105.923 445.5,109.5C 444.726,110.147 443.726,110.48 442.5,110.5C 435.327,108.52 427.993,107.52 420.5,107.5C 417.359,106.679 414.025,106.179 410.5,106C 409.565,103.619 409.232,101.119 409.5,98.5C 410.461,100.265 410.795,102.265 410.5,104.5C 411.833,104.5 413.167,104.5 414.5,104.5C 414.216,102.585 414.549,100.919 415.5,99.5C 415.5,100.5 415.5,101.5 415.5,102.5C 416.5,102.5 417.5,102.5 418.5,102.5C 418.5,101.5 418.5,100.5 418.5,99.5C 419.586,99.62 420.253,100.287 420.5,101.5C 419.577,103.636 417.911,104.802 415.5,105C 418.167,105.167 420.833,105.333 423.5,105.5C 427.454,105.006 431.288,105.006 435,105.5C 436.009,103.975 436.509,102.308 436.5,100.5C 434.425,100.698 432.425,100.865 430.5,101C 431.337,99.9887 431.67,98.8221 431.5,97.5 Z"/></g>
<g><path style="opacity:1" fill="#6c0a0d" d="M 437.5,101.5 C 438.833,101.5 440.167,101.5 441.5,101.5C 441.5,102.833 441.5,104.167 441.5,105.5C 440.167,105.5 438.833,105.5 437.5,105.5C 437.5,104.167 437.5,102.833 437.5,101.5 Z"/></g>
<g><path style="opacity:1" fill="#480100" d="M 415.5,99.5 C 416.5,99.5 417.5,99.5 418.5,99.5C 418.5,100.5 418.5,101.5 418.5,102.5C 417.5,102.5 416.5,102.5 415.5,102.5C 415.5,101.5 415.5,100.5 415.5,99.5 Z"/></g>
<g><path style="opacity:1" fill="#761821" d="M 398.5,103.5 C 399.434,104.568 399.768,105.901 399.5,107.5C 406.5,107.5 413.5,107.5 420.5,107.5C 427.993,107.52 435.327,108.52 442.5,110.5C 443.726,110.48 444.726,110.147 445.5,109.5C 445.833,109.5 446.167,109.5 446.5,109.5C 445.666,110.748 444.333,111.415 442.5,111.5C 440.142,111.247 437.808,110.914 435.5,110.5C 423.221,109.01 410.888,108.344 398.5,108.5C 398.5,106.833 398.5,105.167 398.5,103.5 Z"/></g>
<g><path style="opacity:1" fill="#4b0409" d="M 313.5,115.5 C 311.159,116.036 308.826,116.369 306.5,116.5C 308.27,123.839 305.27,127.839 297.5,128.5C 296.887,124.063 296.22,119.73 295.5,115.5C 296.447,110.777 295.114,106.944 291.5,104C 292.305,102.887 292.972,101.721 293.5,100.5C 297.668,95.0348 301.668,95.2015 305.5,101C 306.448,101.483 307.448,101.649 308.5,101.5C 308.5,100.167 308.5,98.8333 308.5,97.5C 310.362,95.1089 311.696,92.4422 312.5,89.5C 316.198,89.5524 319.865,89.8857 323.5,90.5C 323.62,92.7345 323.287,94.9011 322.5,97C 322.554,102.847 324.721,107.68 329,111.5C 329.667,112.5 329.667,113.5 329,114.5C 326.656,116.966 323.822,118.632 320.5,119.5C 318.971,119.471 317.804,118.804 317,117.5C 316.337,112.762 315.171,112.095 313.5,115.5 Z"/></g>
<g><path style="opacity:1" fill="#a2232c" d="M 391.5,79.5 C 392.394,89.4962 392.894,99.4962 393,109.5C 389.27,110.46 385.437,110.793 381.5,110.5C 379.692,110.509 378.025,110.009 376.5,109C 376.957,108.586 377.291,108.086 377.5,107.5C 374.185,106.447 370.852,106.447 367.5,107.5C 367.918,106.778 368.584,106.278 369.5,106C 374.029,105.321 378.529,105.487 383,106.5C 385.822,105.725 388.656,105.058 391.5,104.5C 390.318,96.0138 390.318,87.6805 391.5,79.5 Z"/></g>
<g><path style="opacity:1" fill="#9a2230" d="M 314.5,92.5 C 316.604,92.2011 318.604,92.5344 320.5,93.5C 319.456,95.7676 319.289,98.1009 320,100.5C 320.717,105.276 322.551,109.443 325.5,113C 324.022,115.039 322.022,115.872 319.5,115.5C 319.618,111.76 318.618,108.427 316.5,105.5C 315.5,105.5 314.5,105.5 313.5,105.5C 313.387,108.686 312.22,111.353 310,113.5C 308.14,111.799 305.973,110.799 303.5,110.5C 303.816,114.525 303.983,118.525 304,122.5C 302.817,123.731 301.651,123.731 300.5,122.5C 299.299,115.323 297.799,108.323 296,101.5C 297.085,100.707 298.252,100.04 299.5,99.5C 301.65,101.149 303.65,102.982 305.5,105C 306.833,105.667 308.167,105.667 309.5,105C 310.826,100.682 312.493,96.5157 314.5,92.5 Z"/></g>
<g><path style="opacity:1" fill="#450d10" d="M 449.5,87.5 C 451.077,92.2206 453.41,96.5539 456.5,100.5C 454.061,102.946 454.061,105.446 456.5,108C 455.652,110.77 455.319,113.603 455.5,116.5C 453.167,116.5 450.833,116.5 448.5,116.5C 448.668,113.316 447.334,112.816 444.5,115C 445.056,115.383 445.389,115.883 445.5,116.5C 437.966,115.976 430.632,114.976 423.5,113.5C 428.849,113.855 434.182,114.022 439.5,114C 439.833,113.667 440.167,113.333 440.5,113C 438.347,112.901 436.681,112.067 435.5,110.5C 437.808,110.914 440.142,111.247 442.5,111.5C 444.333,111.415 445.666,110.748 446.5,109.5C 446.632,106.43 446.299,103.43 445.5,100.5C 447.308,99.0821 447.975,97.0821 447.5,94.5C 448.222,94.9175 448.722,95.5842 449,96.5C 449.667,102.5 450.333,108.5 451,114.5C 452.011,115.337 453.178,115.67 454.5,115.5C 454.665,112.482 454.498,109.482 454,106.5C 452.025,100.267 450.525,93.9332 449.5,87.5 Z"/></g>
<g><path style="opacity:1" fill="#c76d66" d="M 449.5,87.5 C 450.525,93.9332 452.025,100.267 454,106.5C 454.498,109.482 454.665,112.482 454.5,115.5C 453.178,115.67 452.011,115.337 451,114.5C 450.333,108.5 449.667,102.5 449,96.5C 448.722,95.5842 448.222,94.9175 447.5,94.5C 447.481,92.9397 447.148,91.4397 446.5,90C 446.748,88.2509 447.748,87.4176 449.5,87.5 Z"/></g>
<g><path style="opacity:1" fill="#807272" d="M 256.5,97.5 C 256.185,101.371 256.518,105.038 257.5,108.5C 257.5,111.833 257.5,115.167 257.5,118.5C 255.669,111.543 255.336,104.543 256.5,97.5 Z"/></g>
<g><path style="opacity:1" fill="#c72f32" d="M 335.5,89.5 C 337.101,92.5502 338.101,95.8835 338.5,99.5C 338.839,104.535 339.506,109.535 340.5,114.5C 340.379,115.894 340.046,117.228 339.5,118.5C 332.379,119.261 325.379,120.928 318.5,123.5C 319.589,121.883 321.256,121.05 323.5,121C 321.5,120.667 319.5,120.333 317.5,120C 316.421,118.141 315.088,116.641 313.5,115.5C 315.171,112.095 316.337,112.762 317,117.5C 317.804,118.804 318.971,119.471 320.5,119.5C 323.822,118.632 326.656,116.966 329,114.5C 329.667,113.5 329.667,112.5 329,111.5C 324.721,107.68 322.554,102.847 322.5,97C 323.287,94.9011 323.62,92.7345 323.5,90.5C 319.865,89.8857 316.198,89.5524 312.5,89.5C 311.696,92.4422 310.362,95.1089 308.5,97.5C 309.298,93.8176 310.631,90.3176 312.5,87C 315.267,86.9444 317.933,86.7777 320.5,86.5C 321.59,87.727 322.924,88.5604 324.5,89C 325.721,92.4465 325.721,95.9465 324.5,99.5C 327.686,105.052 330.686,110.719 333.5,116.5C 333.205,115.174 333.705,113.841 335,112.5C 336,112.833 337,113.167 338,113.5C 337.741,105.486 336.907,97.486 335.5,89.5 Z"/></g>
<g><path style="opacity:1" fill="#bb786d" d="M 398.5,113.5 C 398.428,115.311 397.595,116.644 396,117.5C 382.807,119.418 369.64,122.251 356.5,126C 356.833,126.333 357.167,126.667 357.5,127C 355.027,127.22 353.36,128.386 352.5,130.5C 351.596,131.209 351.263,132.209 351.5,133.5C 350.833,133.5 350.5,133.167 350.5,132.5C 350.5,130.167 350.5,127.833 350.5,125.5C 364.864,121.077 379.531,117.91 394.5,116C 395.984,115.338 397.317,114.504 398.5,113.5 Z"/></g>
<g><path style="opacity:1" fill="#9a1e30" d="M 285.5,74.5 C 284.091,80.6372 282.758,86.8039 281.5,93C 283.34,106.123 285.007,117.29 286.5,126.5C 287.873,126.657 289.207,126.49 290.5,126C 293.495,123.187 295.162,119.687 295.5,115.5C 296.22,119.73 296.887,124.063 297.5,128.5C 296.504,128.586 295.671,128.252 295,127.5C 293.608,122.519 292.941,122.852 293,128.5C 294.403,130.198 296.236,130.698 298.5,130C 295.779,132.027 292.779,133.527 289.5,134.5C 288.386,135.723 288.219,137.056 289,138.5C 290.555,136.854 292.221,136.521 294,137.5C 296.2,136.478 298.2,135.145 300,133.5C 300.333,134.167 300.667,134.833 301,135.5C 305.954,133.464 311.121,131.797 316.5,130.5C 306.889,136.043 296.556,140.043 285.5,142.5C 284.061,140.412 283.394,138.079 283.5,135.5C 284.586,135.38 285.253,134.713 285.5,133.5C 283.526,120.13 281.359,106.796 279,93.5C 278.667,93.8333 278.333,94.1667 278,94.5C 277.51,101.896 278.01,109.229 279.5,116.5C 278.819,114.842 277.985,113.175 277,111.5C 276.667,104.833 276.333,98.1667 276,91.5C 275.167,89.8333 274.333,88.1667 273.5,86.5C 272.635,85.4173 271.635,85.2506 270.5,86C 267.054,88.8498 266.887,91.6832 270,94.5C 271.483,92.8808 272.65,92.7141 273.5,94C 272.15,96.2105 271.15,98.5438 270.5,101C 270.167,101.167 269.833,101.333 269.5,101.5C 268.749,100.624 268.249,99.624 268,98.5C 267.136,107.302 266.636,116.302 266.5,125.5C 264.949,121.1 264.116,116.434 264,111.5C 262.912,103.652 263.579,95.9853 266,88.5C 270.046,83.9596 273.879,79.2929 277.5,74.5C 278.708,73.7659 280.041,73.4326 281.5,73.5C 279.728,77.9492 279.228,82.6158 280,87.5C 281.176,82.7798 283.01,78.4465 285.5,74.5 Z"/></g>
<g><path style="opacity:1" fill="#cd826f" d="M 423.5,113.5 C 430.632,114.976 437.966,115.976 445.5,116.5C 447.36,117.939 449.027,119.605 450.5,121.5C 449.5,121.5 448.5,121.5 447.5,121.5C 422.531,115.302 397.864,116.302 373.5,124.5C 366.501,126.5 359.501,128.5 352.5,130.5C 353.36,128.386 355.027,127.22 357.5,127C 357.167,126.667 356.833,126.333 356.5,126C 369.64,122.251 382.807,119.418 396,117.5C 397.595,116.644 398.428,115.311 398.5,113.5C 406.672,112.461 415.005,112.461 423.5,113.5 Z"/></g>
<g><path style="opacity:1" fill="#c6c0c2" d="M 458.5,125.5 C 459.167,127.167 459.833,128.833 460.5,130.5C 457.808,129.409 457.142,127.743 458.5,125.5 Z"/></g>
<g><path style="opacity:1" fill="#49040a" d="M 283.5,135.5 C 281.981,129.191 280.647,122.858 279.5,116.5C 278.01,109.229 277.51,101.896 278,94.5C 278.333,94.1667 278.667,93.8333 279,93.5C 281.359,106.796 283.526,120.13 285.5,133.5C 285.253,134.713 284.586,135.38 283.5,135.5 Z"/></g>
<g><path style="opacity:1" fill="#f2e1ca" d="M 447.5,121.5 C 448.5,121.5 449.5,121.5 450.5,121.5C 451.669,124.341 452.669,127.341 453.5,130.5C 452.448,132.256 450.781,132.923 448.5,132.5C 448.276,128.821 447.942,125.154 447.5,121.5 Z"/></g>
<g><path style="opacity:1" fill="#350d0c" d="M 424.5,142.5 C 413.343,144.87 402.176,144.537 391,141.5C 387.771,142.099 384.604,142.932 381.5,144C 376.674,146.036 372.007,148.203 367.5,150.5C 367.5,149.5 367.5,148.5 367.5,147.5C 371.777,140.557 377.11,134.557 383.5,129.5C 386.6,127.206 390.1,126.206 394,126.5C 403.872,127.428 413.705,128.594 423.5,130C 424.22,132.122 425.387,132.622 427,131.5C 428.187,135.783 427.353,139.45 424.5,142.5 Z"/></g>
<g><path style="opacity:1" fill="#a11e2c" d="M 339.5,92.5 C 341.735,98.7035 343.902,105.037 346,111.5C 347.699,112.406 349.533,112.739 351.5,112.5C 353.193,113.853 354.526,115.52 355.5,117.5C 346.806,119.639 338.14,122.805 329.5,127C 325.279,128.61 320.946,129.777 316.5,130.5C 311.121,131.797 305.954,133.464 301,135.5C 300.667,134.833 300.333,134.167 300,133.5C 298.2,135.145 296.2,136.478 294,137.5C 292.221,136.521 290.555,136.854 289,138.5C 288.219,137.056 288.386,135.723 289.5,134.5C 292.779,133.527 295.779,132.027 298.5,130C 296.236,130.698 294.403,130.198 293,128.5C 292.941,122.852 293.608,122.519 295,127.5C 295.671,128.252 296.504,128.586 297.5,128.5C 305.27,127.839 308.27,123.839 306.5,116.5C 308.826,116.369 311.159,116.036 313.5,115.5C 313.306,117.912 311.973,118.912 309.5,118.5C 309.5,120.833 309.5,123.167 309.5,125.5C 312.697,125.595 315.697,124.928 318.5,123.5C 325.379,120.928 332.379,119.261 339.5,118.5C 340.046,117.228 340.379,115.894 340.5,114.5C 339.506,109.535 338.839,104.535 338.5,99.5C 339.117,99.6107 339.617,99.944 340,100.5C 340.175,97.8428 340.008,95.1761 339.5,92.5 Z"/></g>
<g><path style="opacity:1" fill="#573321" d="M 389.5,130.5 C 399.82,131.266 410.154,131.933 420.5,132.5C 420.747,135.505 419.747,138.005 417.5,140C 409.138,140.276 400.805,139.776 392.5,138.5C 386.473,138.711 380.973,140.378 376,143.5C 375.5,143.333 375,143.167 374.5,143C 378.792,137.872 383.792,133.705 389.5,130.5 Z"/></g>
<g><path style="opacity:1" fill="#f8bb8d" d="M 383.5,129.5 C 377.11,134.557 371.777,140.557 367.5,147.5C 366.566,148.568 366.232,149.901 366.5,151.5C 367.5,151.5 368.5,151.5 369.5,151.5C 368.769,155.603 369.769,159.103 372.5,162C 370.256,162.05 368.589,162.883 367.5,164.5C 366.71,163.391 366.21,162.058 366,160.5C 365.1,161.77 363.934,162.77 362.5,163.5C 363.093,165.382 363.76,167.215 364.5,169C 363.692,169.308 363.025,169.808 362.5,170.5C 364.933,173.242 367.933,174.075 371.5,173C 370.149,170.875 370.815,169.708 373.5,169.5C 374.554,169.68 375.554,170.013 376.5,170.5C 382.551,167.619 388.885,166.953 395.5,168.5C 395.343,169.873 395.51,171.207 396,172.5C 397.683,173.887 398.85,175.553 399.5,177.5C 400.514,178.765 402.014,179.431 404,179.5C 407.787,179.598 411.453,178.932 415,177.5C 417.959,178.96 420.792,180.627 423.5,182.5C 421.071,183.292 418.905,183.292 417,182.5C 416,181.5 415,180.5 414,179.5C 411.215,180.895 408.382,182.228 405.5,183.5C 403.062,181.853 400.729,182.353 398.5,185C 398.957,185.414 399.291,185.914 399.5,186.5C 394.208,187.495 388.875,187.828 383.5,187.5C 383.607,189.903 382.607,191.736 380.5,193C 375.948,194.558 371.615,196.558 367.5,199C 367.539,201.297 367.872,203.63 368.5,206C 367.695,210.749 367.195,215.582 367,220.5C 366.329,219.748 365.496,219.414 364.5,219.5C 361.507,215.521 359.007,211.188 357,206.5C 355.855,205.316 354.688,205.316 353.5,206.5C 350.412,202.819 349.412,198.985 350.5,195C 350,194.5 349.5,194 349,193.5C 347.374,193.854 345.541,193.854 343.5,193.5C 343.546,188.887 342.713,184.553 341,180.5C 340.333,173.5 340.333,166.5 341,159.5C 342,157.5 343,155.5 344,153.5C 345.011,152.663 346.178,152.33 347.5,152.5C 347.929,148.976 349.429,145.976 352,143.5C 352.789,141.288 352.622,139.288 351.5,137.5C 351.5,136.167 351.5,134.833 351.5,133.5C 351.263,132.209 351.596,131.209 352.5,130.5C 359.501,128.5 366.501,126.5 373.5,124.5C 377.665,123.845 381.665,123.511 385.5,123.5C 387.931,124.806 387.597,125.806 384.5,126.5C 383.873,127.417 383.539,128.417 383.5,129.5 Z"/></g>
<g><path style="opacity:1" fill="#ada2a3" d="M 463.5,134.5 C 465.104,135.287 465.771,136.62 465.5,138.5C 464.326,137.486 463.66,136.153 463.5,134.5 Z"/></g>
<g><path style="opacity:1" fill="#522d20" d="M 447.5,135.5 C 450.787,136.161 454.12,136.661 457.5,137C 459.662,139.522 459.995,142.355 458.5,145.5C 455.05,143.776 451.383,143.109 447.5,143.5C 447.5,140.833 447.5,138.167 447.5,135.5 Z"/></g>
<g><path style="opacity:1" fill="#330608" d="M 282.5,68.5 C 280.81,70.5193 279.144,72.5193 277.5,74.5C 273.879,79.2929 270.046,83.9596 266,88.5C 263.579,95.9853 262.912,103.652 264,111.5C 264.116,116.434 264.949,121.1 266.5,125.5C 266.163,133.147 267.496,140.48 270.5,147.5C 272.912,146.423 275.246,145.256 277.5,144C 280.365,143.817 283.031,143.317 285.5,142.5C 296.556,140.043 306.889,136.043 316.5,130.5C 320.946,129.777 325.279,128.61 329.5,127C 338.14,122.805 346.806,119.639 355.5,117.5C 364.162,115.503 372.829,113.503 381.5,111.5C 385.767,111.797 389.934,111.464 394,110.5C 394.171,105.467 394.671,100.467 395.5,95.5C 396.168,97.9688 396.835,100.302 397.5,102.5C 398.167,102.5 398.5,102.833 398.5,103.5C 398.5,105.167 398.5,106.833 398.5,108.5C 410.888,108.344 423.221,109.01 435.5,110.5C 436.681,112.067 438.347,112.901 440.5,113C 440.167,113.333 439.833,113.667 439.5,114C 434.182,114.022 428.849,113.855 423.5,113.5C 415.005,112.461 406.672,112.461 398.5,113.5C 397.317,114.504 395.984,115.338 394.5,116C 379.531,117.91 364.864,121.077 350.5,125.5C 350.5,127.833 350.5,130.167 350.5,132.5C 349.167,131.833 347.833,131.167 346.5,130.5C 346.5,129.5 346.5,128.5 346.5,127.5C 329.846,132.218 313.679,138.218 298,145.5C 290.163,152.509 281.663,158.676 272.5,164C 270.648,169.407 268.982,174.907 267.5,180.5C 269.045,181.452 270.712,181.785 272.5,181.5C 272.739,187.565 272.239,193.565 271,199.5C 270.059,201.727 268.892,203.727 267.5,205.5C 266.938,202.227 265.271,201.227 262.5,202.5C 263.167,200.167 263.833,197.833 264.5,195.5C 264.435,195.062 264.601,194.728 265,194.5C 265.419,195.672 266.085,196.672 267,197.5C 266.49,195.62 266.657,193.787 267.5,192C 265.531,191.92 263.531,192.086 261.5,192.5C 258.741,190.555 255.741,190.555 252.5,192.5C 251.167,191.833 249.833,191.167 248.5,190.5C 247.667,191.5 246.833,192.5 246,193.5C 245.311,192.643 244.478,191.977 243.5,191.5C 238.589,192.968 233.256,193.968 227.5,194.5C 223.841,193.036 220.174,192.703 216.5,193.5C 223.446,188.115 231.113,183.615 239.5,180C 254.529,169.625 269.529,159.292 284.5,149C 284,148.833 283.5,148.667 283,148.5C 278.48,151.007 273.647,152.507 268.5,153C 265.778,155.358 262.778,157.191 259.5,158.5C 261.203,155.808 263.536,153.808 266.5,152.5C 265.617,151.452 264.95,150.285 264.5,149C 265.354,148.426 266.354,147.759 267.5,147C 266.796,143.872 266.296,140.706 266,137.5C 263.632,136.631 262.132,134.965 261.5,132.5C 261.101,130.102 261.101,127.602 261.5,125C 260.731,122.416 259.398,120.25 257.5,118.5C 257.5,115.167 257.5,111.833 257.5,108.5C 257.317,106.064 257.984,103.897 259.5,102C 258.964,100.256 258.63,98.4226 258.5,96.5C 260.391,95.6893 261.724,94.3559 262.5,92.5C 261.975,91.8076 261.308,91.3076 260.5,91C 261.12,88.5272 261.786,86.0272 262.5,83.5C 263.833,82.1667 265.167,82.1667 266.5,83.5C 269.505,81.674 271.339,79.0074 272,75.5C 274.403,74.5206 275.236,73.0206 274.5,71C 277.285,70.3425 279.951,69.5091 282.5,68.5 Z"/></g>
<g><path style="opacity:1" fill="#d5302f" d="M 313.5,115.5 C 315.088,116.641 316.421,118.141 317.5,120C 319.5,120.333 321.5,120.667 323.5,121C 321.256,121.05 319.589,121.883 318.5,123.5C 315.697,124.928 312.697,125.595 309.5,125.5C 309.5,123.167 309.5,120.833 309.5,118.5C 311.973,118.912 313.306,117.912 313.5,115.5 Z"/></g>
<g><path style="opacity:1" fill="#821822" d="M 381.5,110.5 C 381.5,110.833 381.5,111.167 381.5,111.5C 372.829,113.503 364.162,115.503 355.5,117.5C 354.526,115.52 353.193,113.853 351.5,112.5C 356.745,110.865 362.078,109.198 367.5,107.5C 370.852,106.447 374.185,106.447 377.5,107.5C 377.291,108.086 376.957,108.586 376.5,109C 378.025,110.009 379.692,110.509 381.5,110.5 Z"/></g>
<g><path style="opacity:1" fill="#cb8071" d="M 424.5,142.5 C 424.018,143.416 423.685,144.416 423.5,145.5C 425.297,150.352 426.297,155.352 426.5,160.5C 425.448,160.351 424.448,160.517 423.5,161C 421.79,164.719 419.29,167.886 416,170.5C 414.198,169.211 413.031,167.544 412.5,165.5C 413.338,162.146 414.172,158.813 415,155.5C 401.437,150.056 390.27,153.056 381.5,164.5C 376.801,165.446 372.134,165.446 367.5,164.5C 368.589,162.883 370.256,162.05 372.5,162C 369.769,159.103 368.769,155.603 369.5,151.5C 368.5,151.5 367.5,151.5 366.5,151.5C 366.232,149.901 366.566,148.568 367.5,147.5C 367.5,148.5 367.5,149.5 367.5,150.5C 372.007,148.203 376.674,146.036 381.5,144C 384.604,142.932 387.771,142.099 391,141.5C 402.176,144.537 413.343,144.87 424.5,142.5 Z"/></g>
<g><path style="opacity:1" fill="#b77368" d="M 455.5,148.5 C 453.856,148.286 452.356,148.62 451,149.5C 449.952,151.921 449.786,154.254 450.5,156.5C 448.156,155.328 445.823,155.328 443.5,156.5C 442.479,155.998 442.312,155.332 443,154.5C 444.419,153.54 445.919,152.707 447.5,152C 446.207,151.51 444.873,151.343 443.5,151.5C 443.5,150.167 443.5,148.833 443.5,147.5C 447.702,147.183 451.702,147.517 455.5,148.5 Z"/></g>
<g><path style="opacity:1" fill="#c7afb3" d="M 260.5,142.5 C 261.455,144.283 262.122,146.283 262.5,148.5C 262.253,149.713 261.586,150.38 260.5,150.5C 260.957,147.976 260.957,145.309 260.5,142.5 Z"/></g>
<g><path style="opacity:1" fill="#672f22" d="M 396.5,147.5 C 411.152,148.005 411.152,148.838 396.5,150C 393.888,150.639 391.554,151.806 389.5,153.5C 388.167,152.833 388.167,152.167 389.5,151.5C 392.059,150.392 394.392,149.059 396.5,147.5 Z"/></g>
<g><path style="opacity:1" fill="#8b8283" d="M 465.5,146.5 C 465.771,148.38 465.104,149.713 463.5,150.5C 463.66,148.847 464.326,147.514 465.5,146.5 Z"/></g>
<g><path style="opacity:1" fill="#855331" d="M 346.5,135.5 C 346.702,137.989 346.202,140.323 345,142.5C 341.589,146.399 338.422,150.399 335.5,154.5C 330.392,156.333 325.058,156.999 319.5,156.5C 319.5,155.5 319.5,154.5 319.5,153.5C 329.376,150.86 336.71,144.86 341.5,135.5C 343.167,134.334 344.834,134.334 346.5,135.5 Z"/></g>
<g><path style="opacity:1" fill="#dfa488" d="M 455.5,148.5 C 456.09,151.952 455.257,155.285 453,158.5C 452.292,157.619 451.458,156.953 450.5,156.5C 449.786,154.254 449.952,151.921 451,149.5C 452.356,148.62 453.856,148.286 455.5,148.5 Z"/></g>
<g><path style="opacity:1" fill="#991e2d" d="M 216.5,193.5 C 209.81,194.669 208.143,192.503 211.5,187C 212.745,186.209 214.078,185.709 215.5,185.5C 214.167,186.933 212.667,188.267 211,189.5C 210.568,190.6 211.068,191.267 212.5,191.5C 220.707,186.569 228.707,181.402 236.5,176C 239.424,175.012 242.424,174.346 245.5,174C 244.833,173.667 244.167,173.333 243.5,173C 248.624,171.853 252.624,169.186 255.5,165C 253.115,164.444 250.782,164.61 248.5,165.5C 251.119,163.415 254.119,161.915 257.5,161C 258.381,160.292 259.047,159.458 259.5,158.5C 262.778,157.191 265.778,155.358 268.5,153C 273.647,152.507 278.48,151.007 283,148.5C 283.5,148.667 284,148.833 284.5,149C 269.529,159.292 254.529,169.625 239.5,180C 231.113,183.615 223.446,188.115 216.5,193.5 Z"/></g>
<g><path style="opacity:1" fill="#331010" d="M 412.5,165.5 C 412.688,163.897 412.188,162.563 411,161.5C 409.775,169.872 405.941,171.539 399.5,166.5C 399.5,164.833 399.5,163.167 399.5,161.5C 400.5,161.5 401.5,161.5 402.5,161.5C 402.737,160.209 402.404,159.209 401.5,158.5C 396.4,159.055 391.733,160.721 387.5,163.5C 385.523,165.188 383.523,165.521 381.5,164.5C 390.27,153.056 401.437,150.056 415,155.5C 414.172,158.813 413.338,162.146 412.5,165.5 Z"/></g>
<g><path style="opacity:1" fill="#381619" d="M 257.5,118.5 C 259.398,120.25 260.731,122.416 261.5,125C 261.101,127.602 261.101,130.102 261.5,132.5C 262.132,134.965 263.632,136.631 266,137.5C 266.296,140.706 266.796,143.872 267.5,147C 266.354,147.759 265.354,148.426 264.5,149C 264.95,150.285 265.617,151.452 266.5,152.5C 263.536,153.808 261.203,155.808 259.5,158.5C 259.047,159.458 258.381,160.292 257.5,161C 254.119,161.915 251.119,163.415 248.5,165.5C 236.972,171.375 225.972,178.042 215.5,185.5C 214.078,185.709 212.745,186.209 211.5,187C 208.143,192.503 209.81,194.669 216.5,193.5C 220.174,192.703 223.841,193.036 227.5,194.5C 233.256,193.968 238.589,192.968 243.5,191.5C 244.478,191.977 245.311,192.643 246,193.5C 246.833,192.5 247.667,191.5 248.5,190.5C 249.833,191.167 251.167,191.833 252.5,192.5C 255.741,190.555 258.741,190.555 261.5,192.5C 263.531,192.086 265.531,191.92 267.5,192C 266.657,193.787 266.49,195.62 267,197.5C 266.085,196.672 265.419,195.672 265,194.5C 264.601,194.728 264.435,195.062 264.5,195.5C 246.708,193.962 229.375,195.962 212.5,201.5C 211.893,201.376 211.56,201.043 211.5,200.5C 210.486,199.326 209.153,198.66 207.5,198.5C 206.504,198.586 205.671,198.252 205,197.5C 200.952,190.986 202.119,185.653 208.5,181.5C 212.69,181.977 215.69,180.311 217.5,176.5C 221.528,173.474 225.861,170.807 230.5,168.5C 233.198,168.155 235.198,166.822 236.5,164.5C 238.833,163.167 241.167,161.833 243.5,160.5C 245.674,160.25 247.341,159.25 248.5,157.5C 252.172,154.662 256.172,152.329 260.5,150.5C 261.586,150.38 262.253,149.713 262.5,148.5C 262.122,146.283 261.455,144.283 260.5,142.5C 258.96,134.705 257.96,126.705 257.5,118.5 Z"/></g>
<g><path style="opacity:1" fill="#c3bbbb" d="M 248.5,157.5 C 247.341,159.25 245.674,160.25 243.5,160.5C 244.659,158.75 246.326,157.75 248.5,157.5 Z"/></g>
<g><path style="opacity:1" fill="#f4b98f" d="M 447.5,121.5 C 447.942,125.154 448.276,128.821 448.5,132.5C 450.781,132.923 452.448,132.256 453.5,130.5C 454.404,131.209 454.737,132.209 454.5,133.5C 451.319,133.258 448.319,133.258 445.5,133.5C 444.746,136.777 444.246,140.11 444,143.5C 441.344,147.144 439.511,151.144 438.5,155.5C 437.566,156.772 436.899,158.272 436.5,160C 438.61,165.329 440.11,170.829 441,176.5C 441.931,181.327 443.431,181.66 445.5,177.5C 446.906,177.973 447.573,178.973 447.5,180.5C 447.062,180.435 446.728,180.601 446.5,181C 447.167,181.333 447.833,181.667 448.5,182C 447.667,183.5 446.5,184.667 445,185.5C 444.517,186.448 444.351,187.448 444.5,188.5C 448.514,188.666 452.514,188.499 456.5,188C 457.337,186.989 457.67,185.822 457.5,184.5C 459.71,184.894 461.043,186.227 461.5,188.5C 461.5,189.833 461.5,191.167 461.5,192.5C 457.291,195.101 452.625,196.434 447.5,196.5C 438.978,194.562 430.645,192.895 422.5,191.5C 423.864,187.236 426.864,185.403 431.5,186C 427.487,183.891 423.82,184.391 420.5,187.5C 416.884,188.314 413.551,189.648 410.5,191.5C 398.133,196.665 385.466,201.165 372.5,205C 370.951,206.214 369.785,207.714 369,209.5C 368.828,213.871 368.328,218.204 367.5,222.5C 366.145,221.812 365.145,220.812 364.5,219.5C 365.496,219.414 366.329,219.748 367,220.5C 367.195,215.582 367.695,210.749 368.5,206C 367.872,203.63 367.539,201.297 367.5,199C 371.615,196.558 375.948,194.558 380.5,193C 382.607,191.736 383.607,189.903 383.5,187.5C 388.875,187.828 394.208,187.495 399.5,186.5C 399.291,185.914 398.957,185.414 398.5,185C 400.729,182.353 403.062,181.853 405.5,183.5C 408.382,182.228 411.215,180.895 414,179.5C 415,180.5 416,181.5 417,182.5C 418.905,183.292 421.071,183.292 423.5,182.5C 420.792,180.627 417.959,178.96 415,177.5C 411.453,178.932 407.787,179.598 404,179.5C 402.014,179.431 400.514,178.765 399.5,177.5C 398.85,175.553 397.683,173.887 396,172.5C 395.51,171.207 395.343,169.873 395.5,168.5C 388.885,166.953 382.551,167.619 376.5,170.5C 375.554,170.013 374.554,169.68 373.5,169.5C 370.815,169.708 370.149,170.875 371.5,173C 367.933,174.075 364.933,173.242 362.5,170.5C 363.025,169.808 363.692,169.308 364.5,169C 363.76,167.215 363.093,165.382 362.5,163.5C 363.934,162.77 365.1,161.77 366,160.5C 366.21,162.058 366.71,163.391 367.5,164.5C 372.134,165.446 376.801,165.446 381.5,164.5C 383.523,165.521 385.523,165.188 387.5,163.5C 391.019,164.632 394.686,165.632 398.5,166.5C 398.833,166.5 399.167,166.5 399.5,166.5C 405.941,171.539 409.775,169.872 411,161.5C 412.188,162.563 412.688,163.897 412.5,165.5C 413.031,167.544 414.198,169.211 416,170.5C 419.29,167.886 421.79,164.719 423.5,161C 424.448,160.517 425.448,160.351 426.5,160.5C 426.297,155.352 425.297,150.352 423.5,145.5C 423.685,144.416 424.018,143.416 424.5,142.5C 427.353,139.45 428.187,135.783 427,131.5C 425.387,132.622 424.22,132.122 423.5,130C 413.705,128.594 403.872,127.428 394,126.5C 390.1,126.206 386.6,127.206 383.5,129.5C 383.539,128.417 383.873,127.417 384.5,126.5C 387.597,125.806 387.931,124.806 385.5,123.5C 381.665,123.511 377.665,123.845 373.5,124.5C 397.864,116.302 422.531,115.302 447.5,121.5 Z"/></g>
<g><path style="opacity:1" fill="#d8c7c2" d="M 443.5,160.5 C 447.31,161.754 447.31,162.754 443.5,163.5C 443.5,162.5 443.5,161.5 443.5,160.5 Z"/></g>
<g><path style="opacity:1" fill="#7f7370" d="M 401.5,158.5 C 402.404,159.209 402.737,160.209 402.5,161.5C 401.5,161.5 400.5,161.5 399.5,161.5C 399.5,163.167 399.5,164.833 399.5,166.5C 399.167,166.5 398.833,166.5 398.5,166.5C 398.5,164.5 398.5,162.5 398.5,160.5C 400.179,160.715 401.179,160.048 401.5,158.5 Z"/></g>
<g><path style="opacity:1" fill="#a79897" d="M 236.5,164.5 C 235.198,166.822 233.198,168.155 230.5,168.5C 232.147,166.674 234.147,165.34 236.5,164.5 Z"/></g>
<g><path style="opacity:1" fill="#62361e" d="M 368.5,167.5 C 370.857,167.337 373.19,167.503 375.5,168C 372.074,168.71 368.741,169.377 365.5,170C 366.571,169.148 367.571,168.315 368.5,167.5 Z"/></g>
<g><path style="opacity:1" fill="#dec5b3" d="M 448.5,168.5 C 452.209,170.223 454.209,173.223 454.5,177.5C 449.215,176.567 447.215,173.567 448.5,168.5 Z"/></g>
<g><path style="opacity:1" fill="#5a301d" d="M 399.5,177.5 C 403.626,175.757 407.626,173.424 411.5,170.5C 411.833,170.833 412.167,171.167 412.5,171.5C 409.317,175.924 404.983,177.924 399.5,177.5 Z"/></g>
<g><path style="opacity:1" fill="#b8282f" d="M 215.5,185.5 C 225.972,178.042 236.972,171.375 248.5,165.5C 250.782,164.61 253.115,164.444 255.5,165C 252.624,169.186 248.624,171.853 243.5,173C 244.167,173.333 244.833,173.667 245.5,174C 242.424,174.346 239.424,175.012 236.5,176C 228.707,181.402 220.707,186.569 212.5,191.5C 211.068,191.267 210.568,190.6 211,189.5C 212.667,188.267 214.167,186.933 215.5,185.5 Z"/></g>
<g><path style="opacity:1" fill="#ead4bc" d="M 438.5,155.5 C 440.248,163.002 442.582,170.336 445.5,177.5C 443.431,181.66 441.931,181.327 441,176.5C 440.11,170.829 438.61,165.329 436.5,160C 436.899,158.272 437.566,156.772 438.5,155.5 Z"/></g>
<g><path style="opacity:1" fill="#cdbfc0" d="M 458.5,173.5 C 460.074,175.102 460.741,177.102 460.5,179.5C 459.262,177.786 458.595,175.786 458.5,173.5 Z"/></g>
<g><path style="opacity:1" fill="#533e3c" d="M 217.5,176.5 C 215.69,180.311 212.69,181.977 208.5,181.5C 211.583,180.024 214.583,178.357 217.5,176.5 Z"/></g>
<g><path style="opacity:1" fill="#7e4e30" d="M 333.5,163.5 C 333.364,171.927 334.03,180.26 335.5,188.5C 334.622,186.981 333.622,186.147 332.5,186C 332.833,185 333.167,184 333.5,183C 331.386,176.932 330.886,170.765 332,164.5C 331.667,163.833 331.333,163.167 331,162.5C 328.499,167.452 327.999,172.952 329.5,179C 327.984,184.838 326.984,190.505 326.5,196C 326.667,197.5 326.833,199 327,200.5C 327.654,199.304 328.154,199.304 328.5,200.5C 327.125,203.426 325.958,206.426 325,209.5C 325.477,214.089 324.977,218.422 323.5,222.5C 324.781,222.016 325.781,222.683 326.5,224.5C 325.078,225.925 323.411,226.925 321.5,227.5C 323.844,212.937 325.344,198.27 326,183.5C 326.36,181.579 327.194,179.912 328.5,178.5C 327.113,178.193 325.446,178.193 323.5,178.5C 323.5,173.833 323.5,169.167 323.5,164.5C 327.011,163.155 330.178,161.155 333,158.5C 333.494,160.134 333.66,161.801 333.5,163.5 Z"/></g>
<g><path style="opacity:1" fill="#f6e5cd" d="M 447.5,180.5 C 450.918,181.639 454.251,182.972 457.5,184.5C 457.67,185.822 457.337,186.989 456.5,188C 452.514,188.499 448.514,188.666 444.5,188.5C 444.351,187.448 444.517,186.448 445,185.5C 446.5,184.667 447.667,183.5 448.5,182C 447.833,181.667 447.167,181.333 446.5,181C 446.728,180.601 447.062,180.435 447.5,180.5 Z"/></g>
<g><path style="opacity:1" fill="#e3b08c" d="M 351.5,137.5 C 352.622,139.288 352.789,141.288 352,143.5C 349.429,145.976 347.929,148.976 347.5,152.5C 346.178,152.33 345.011,152.663 344,153.5C 343,155.5 342,157.5 341,159.5C 340.333,166.5 340.333,173.5 341,180.5C 342.713,184.553 343.546,188.887 343.5,193.5C 345.541,193.854 347.374,193.854 349,193.5C 349.5,194 350,194.5 350.5,195C 349.412,198.985 350.412,202.819 353.5,206.5C 353.719,207.675 353.386,208.675 352.5,209.5C 350.244,205.4 348.577,201.067 347.5,196.5C 346.186,197.313 345.019,198.313 344,199.5C 338.652,185.564 337.318,171.231 340,156.5C 342.857,152.131 346.19,148.131 350,144.5C 351.202,142.323 351.702,139.989 351.5,137.5 Z"/></g>
<g><path style="opacity:1" fill="#9c8b8d" d="M 207.5,198.5 C 209.153,198.66 210.486,199.326 211.5,200.5C 209.62,200.771 208.287,200.104 207.5,198.5 Z"/></g>
<g><path style="opacity:1" fill="#b1a2a8" d="M 261.5,203.5 C 261.573,205.027 260.906,206.027 259.5,206.5C 259.427,204.973 260.094,203.973 261.5,203.5 Z"/></g>
<g><path style="opacity:1" fill="#815030" d="M 417.5,204.5 C 422.384,209.817 428.384,213.983 435.5,217C 434.672,217.915 433.672,218.581 432.5,219C 426.843,219.499 421.176,219.666 415.5,219.5C 414.167,219.5 412.833,219.5 411.5,219.5C 407.41,217.892 403.077,216.725 398.5,216C 395.904,214.203 396.237,212.869 399.5,212C 391.325,210.885 384.992,213.719 380.5,220.5C 381.776,221.645 383.109,221.645 384.5,220.5C 384.697,231.428 386.363,242.095 389.5,252.5C 387.675,249.801 386.008,246.801 384.5,243.5C 384.608,242.558 384.941,241.725 385.5,241C 384.427,239.687 383.76,238.187 383.5,236.5C 384.542,232.201 384.709,227.868 384,223.5C 381.985,223.033 379.818,223.033 377.5,223.5C 376.396,222.369 376.729,221.535 378.5,221C 377.929,219.795 377.262,218.628 376.5,217.5C 376.167,217.833 375.833,218.167 375.5,218.5C 374.34,225.105 373.507,231.772 373,238.5C 372.586,238.957 372.086,239.291 371.5,239.5C 369.665,237.088 368.998,234.588 369.5,232C 367.475,229.566 364.975,227.732 362,226.5C 361.392,224.846 360.892,223.179 360.5,221.5C 365.53,224.363 369.363,228.363 372,233.5C 372.333,226.833 372.667,220.167 373,213.5C 373.273,211.671 374.107,210.171 375.5,209C 383.354,206.498 391.187,203.998 399,201.5C 405.084,202.948 411.251,203.948 417.5,204.5 Z"/></g>
<g><path style="opacity:1" fill="#5c3321" d="M 417.5,204.5 C 422.511,204.334 427.511,204.501 432.5,205C 438.682,209.086 445.348,210.252 452.5,208.5C 452.566,212.345 450.566,215.179 446.5,217C 449.373,219.092 452.707,220.092 456.5,220C 457.381,220.708 458.047,221.542 458.5,222.5C 455.455,222.492 452.455,222.159 449.5,221.5C 447.201,220.222 444.868,218.889 442.5,217.5C 441.614,218.325 441.281,219.325 441.5,220.5C 439.8,220.374 438.3,219.707 437,218.5C 433.362,220.185 429.529,220.851 425.5,220.5C 421.958,220.813 418.625,220.479 415.5,219.5C 421.176,219.666 426.843,219.499 432.5,219C 433.672,218.581 434.672,217.915 435.5,217C 428.384,213.983 422.384,209.817 417.5,204.5 Z"/></g>
<g><path style="opacity:1" fill="#915f3a" d="M 460.5,215.5 C 460.813,218.247 460.48,220.914 459.5,223.5C 458.893,223.376 458.56,223.043 458.5,222.5C 458.047,221.542 457.381,220.708 456.5,220C 452.707,220.092 449.373,219.092 446.5,217C 450.566,215.179 452.566,212.345 452.5,208.5C 453.738,207.588 455.072,207.421 456.5,208C 458.494,210.158 459.828,212.658 460.5,215.5 Z"/></g>
<g><path style="opacity:1" fill="#b09d9d" d="M 464.5,210.5 C 466.047,212.807 466.713,215.473 466.5,218.5C 466.495,220.696 466.162,222.696 465.5,224.5C 465.647,219.786 465.314,215.119 464.5,210.5 Z"/></g>
<g><path style="opacity:1" fill="#e1cbcd" d="M 262.5,217.5 C 264.5,217.5 266.5,217.5 268.5,217.5C 268.737,218.791 268.404,219.791 267.5,220.5C 266.198,218.972 264.531,217.972 262.5,217.5 Z"/></g>
<g><path style="opacity:1" fill="#350d0a" d="M 346.5,130.5 C 347.833,131.167 349.167,131.833 350.5,132.5C 350.5,133.167 350.833,133.5 351.5,133.5C 351.5,134.833 351.5,136.167 351.5,137.5C 351.702,139.989 351.202,142.323 350,144.5C 346.19,148.131 342.857,152.131 340,156.5C 337.318,171.231 338.652,185.564 344,199.5C 345.019,198.313 346.186,197.313 347.5,196.5C 348.577,201.067 350.244,205.4 352.5,209.5C 353.386,208.675 353.719,207.675 353.5,206.5C 354.688,205.316 355.855,205.316 357,206.5C 359.007,211.188 361.507,215.521 364.5,219.5C 365.145,220.812 366.145,221.812 367.5,222.5C 368.328,218.204 368.828,213.871 369,209.5C 369.785,207.714 370.951,206.214 372.5,205C 385.466,201.165 398.133,196.665 410.5,191.5C 410.586,192.496 410.252,193.329 409.5,194C 406.833,195.667 404.167,197.333 401.5,199C 406.981,200.449 412.648,200.949 418.5,200.5C 417.073,195.867 417.74,191.534 420.5,187.5C 423.82,184.391 427.487,183.891 431.5,186C 426.864,185.403 423.864,187.236 422.5,191.5C 421.114,194.393 421.448,197.226 423.5,200C 425.706,200.732 427.372,200.065 428.5,198C 433.954,196.607 438.621,197.774 442.5,201.5C 440.269,201.887 437.936,202.053 435.5,202C 441.635,206.338 447.968,206.338 454.5,202C 458.414,200.007 460.748,196.84 461.5,192.5C 461.5,191.167 461.5,189.833 461.5,188.5C 464.129,189.333 465.463,191.167 465.5,194C 463.655,196.892 462.155,200.059 461,203.5C 460.586,203.043 460.086,202.709 459.5,202.5C 458.378,204.044 458.711,205.377 460.5,206.5C 460.291,207.086 459.957,207.586 459.5,208C 464.274,210.106 464.607,212.606 460.5,215.5C 459.828,212.658 458.494,210.158 456.5,208C 455.072,207.421 453.738,207.588 452.5,208.5C 445.348,210.252 438.682,209.086 432.5,205C 427.511,204.501 422.511,204.334 417.5,204.5C 411.251,203.948 405.084,202.948 399,201.5C 391.187,203.998 383.354,206.498 375.5,209C 374.107,210.171 373.273,211.671 373,213.5C 372.667,220.167 372.333,226.833 372,233.5C 369.363,228.363 365.53,224.363 360.5,221.5C 358.842,218.184 357.175,214.85 355.5,211.5C 354.05,212.85 353.383,214.516 353.5,216.5C 350.708,216.548 348.875,215.215 348,212.5C 347.273,209.136 346.44,205.803 345.5,202.5C 343.931,203.714 343.098,205.381 343,207.5C 342.333,208.833 341.667,208.833 341,207.5C 338.446,201.262 336.612,194.929 335.5,188.5C 334.03,180.26 333.364,171.927 333.5,163.5C 334.344,160.655 335.01,157.655 335.5,154.5C 338.422,150.399 341.589,146.399 345,142.5C 346.202,140.323 346.702,137.989 346.5,135.5C 346.5,133.833 346.5,132.167 346.5,130.5 Z"/></g>
<g><path style="opacity:1" fill="#dea482" d="M 420.5,187.5 C 417.74,191.534 417.073,195.867 418.5,200.5C 412.648,200.949 406.981,200.449 401.5,199C 404.167,197.333 406.833,195.667 409.5,194C 410.252,193.329 410.586,192.496 410.5,191.5C 413.551,189.648 416.884,188.314 420.5,187.5 Z"/></g>
<g><path style="opacity:1" fill="#c47d6f" d="M 422.5,191.5 C 430.645,192.895 438.978,194.562 447.5,196.5C 452.625,196.434 457.291,195.101 461.5,192.5C 460.748,196.84 458.414,200.007 454.5,202C 447.968,206.338 441.635,206.338 435.5,202C 437.936,202.053 440.269,201.887 442.5,201.5C 438.621,197.774 433.954,196.607 428.5,198C 427.372,200.065 425.706,200.732 423.5,200C 421.448,197.226 421.114,194.393 422.5,191.5 Z"/></g>
<g><path style="opacity:1" fill="#9c8484" d="M 459.5,229.5 C 458.391,229.557 457.391,229.89 456.5,230.5C 457.053,228.448 458.053,228.115 459.5,229.5 Z"/></g>
<g><path style="opacity:1" fill="#593220" d="M 346.5,130.5 C 346.5,132.167 346.5,133.833 346.5,135.5C 344.834,134.334 343.167,134.334 341.5,135.5C 336.71,144.86 329.376,150.86 319.5,153.5C 319.5,154.5 319.5,155.5 319.5,156.5C 325.058,156.999 330.392,156.333 335.5,154.5C 335.01,157.655 334.344,160.655 333.5,163.5C 333.66,161.801 333.494,160.134 333,158.5C 330.178,161.155 327.011,163.155 323.5,164.5C 323.5,169.167 323.5,173.833 323.5,178.5C 325.446,178.193 327.113,178.193 328.5,178.5C 327.194,179.912 326.36,181.579 326,183.5C 325.344,198.27 323.844,212.937 321.5,227.5C 322.721,229.709 324.055,231.876 325.5,234C 324.469,243.058 324.469,251.725 325.5,260C 326.448,260.483 327.448,260.649 328.5,260.5C 328.587,263.598 328.087,263.932 327,261.5C 329.082,268.406 331.582,275.239 334.5,282C 333.542,283.147 333.875,284.147 335.5,285C 334.829,285.986 334.829,287.153 335.5,288.5C 330.233,281.879 327.4,274.212 327,265.5C 325.207,269.712 323.707,274.045 322.5,278.5C 321.5,278.5 320.5,278.5 319.5,278.5C 318.312,273.435 316.812,268.435 315,263.5C 313.072,255.101 313.238,246.768 315.5,238.5C 315.167,237.833 314.833,237.167 314.5,236.5C 312.668,237.248 311.001,238.248 309.5,239.5C 309.167,239 308.833,238.5 308.5,238C 310.092,232.881 312.259,228.048 315,223.5C 317.135,216.094 319.469,208.761 322,201.5C 322.499,196.845 322.666,192.179 322.5,187.5C 321.209,187.263 320.209,187.596 319.5,188.5C 317.755,184.8 316.755,180.8 316.5,176.5C 321.093,188.857 322.593,188.191 321,174.5C 320.197,171.756 319.197,169.089 318,166.5C 314.34,164.591 311.173,162.091 308.5,159C 306.782,158.654 305.115,158.154 303.5,157.5C 302.913,158.233 302.913,159.233 303.5,160.5C 299.554,159.473 295.554,159.306 291.5,160C 288.669,162.001 286.003,164.167 283.5,166.5C 283.34,164.801 283.506,163.134 284,161.5C 284.333,162.167 284.667,162.833 285,163.5C 285.309,162.234 285.809,161.067 286.5,160C 290.773,158.97 295.106,158.303 299.5,158C 302.167,157 302.167,156 299.5,155C 286.825,153.994 279.325,159.828 277,172.5C 276.242,178.891 276.576,185.224 278,191.5C 281.918,198.34 286.085,205.007 290.5,211.5C 289.631,222.878 283.631,228.378 272.5,228C 271.978,227.439 271.645,226.772 271.5,226C 274.833,220.541 276.167,214.707 275.5,208.5C 272.33,210.195 268.996,210.695 265.5,210C 266.267,208.53 266.933,207.03 267.5,205.5C 268.892,203.727 270.059,201.727 271,199.5C 272.239,193.565 272.739,187.565 272.5,181.5C 270.712,181.785 269.045,181.452 267.5,180.5C 268.982,174.907 270.648,169.407 272.5,164C 281.663,158.676 290.163,152.509 298,145.5C 313.679,138.218 329.846,132.218 346.5,127.5C 346.5,128.5 346.5,129.5 346.5,130.5 Z"/></g>
<g><path style="opacity:1" fill="#f1b68d" d="M 308.5,164.5 C 313.259,167.233 315.926,171.233 316.5,176.5C 316.755,180.8 317.755,184.8 319.5,188.5C 319.328,193.348 318.328,198.015 316.5,202.5C 313.193,203.288 310.193,204.788 307.5,207C 303.848,207.499 300.182,207.665 296.5,207.5C 289.692,201.892 284.859,194.892 282,186.5C 281.088,179.914 281.588,173.581 283.5,167.5C 283.369,168.239 283.536,168.906 284,169.5C 284.833,167.333 286.333,165.833 288.5,165C 295.949,162.138 302.616,163.305 308.5,168.5C 309.292,167.3 309.292,165.967 308.5,164.5 Z"/></g>
<g><path style="opacity:1" fill="#c77d6f" d="M 288.5,169.5 C 288.577,170.75 289.244,171.583 290.5,172C 287.536,175.936 287.036,180.103 289,184.5C 289.663,180.006 291.163,175.839 293.5,172C 297.776,171.974 301.109,173.807 303.5,177.5C 302.167,179.5 300.5,181.167 298.5,182.5C 297.48,184.432 297.313,186.432 298,188.5C 299.62,186.759 301.12,184.925 302.5,183C 304.607,182.146 305.941,182.812 306.5,185C 300.664,189.433 300.33,194.1 305.5,199C 307.066,199.765 308.399,199.598 309.5,198.5C 310.043,198.56 310.376,198.893 310.5,199.5C 304.026,201.039 298.526,199.372 294,194.5C 293.505,192.527 293.338,190.527 293.5,188.5C 290.632,188.915 288.465,187.915 287,185.5C 286.333,180.5 286.333,175.5 287,170.5C 287.383,169.944 287.883,169.611 288.5,169.5 Z"/></g>
<g><path style="opacity:1" fill="#3b100e" d="M 309.5,198.5 C 308.399,199.598 307.066,199.765 305.5,199C 300.33,194.1 300.664,189.433 306.5,185C 305.941,182.812 304.607,182.146 302.5,183C 301.12,184.925 299.62,186.759 298,188.5C 297.313,186.432 297.48,184.432 298.5,182.5C 300.5,181.167 302.167,179.5 303.5,177.5C 301.109,173.807 297.776,171.974 293.5,172C 291.163,175.839 289.663,180.006 289,184.5C 287.036,180.103 287.536,175.936 290.5,172C 289.244,171.583 288.577,170.75 288.5,169.5C 295.743,166.291 301.909,167.958 307,174.5C 308.973,177.464 310.473,180.631 311.5,184C 309.217,186.653 307.217,189.653 305.5,193C 306.483,195.15 307.816,196.983 309.5,198.5 Z"/></g>
<g><path style="opacity:1" fill="#2f0c0b" d="M 316.5,176.5 C 315.926,171.233 313.259,167.233 308.5,164.5C 306.833,163.167 305.167,161.833 303.5,160.5C 302.913,159.233 302.913,158.233 303.5,157.5C 305.115,158.154 306.782,158.654 308.5,159C 311.173,162.091 314.34,164.591 318,166.5C 319.197,169.089 320.197,171.756 321,174.5C 322.593,188.191 321.093,188.857 316.5,176.5 Z"/></g>
<g><path style="opacity:1" fill="#f3e0c4" d="M 303.5,160.5 C 305.167,161.833 306.833,163.167 308.5,164.5C 309.292,165.967 309.292,167.3 308.5,168.5C 302.616,163.305 295.949,162.138 288.5,165C 286.333,165.833 284.833,167.333 284,169.5C 283.536,168.906 283.369,168.239 283.5,167.5C 283.5,167.167 283.5,166.833 283.5,166.5C 286.003,164.167 288.669,162.001 291.5,160C 295.554,159.306 299.554,159.473 303.5,160.5 Z"/></g>
<g><path style="opacity:1" fill="#835436" d="M 334.5,137.5 C 336.355,137.272 337.188,137.939 337,139.5C 333.799,143.036 330.299,146.203 326.5,149C 322.509,150.545 318.509,151.878 314.5,153C 312.098,153.814 309.765,153.647 307.5,152.5C 317.264,148.704 326.264,143.704 334.5,137.5 Z"/></g>
<g><path style="opacity:1" fill="#5f3423" d="M 449.5,225.5 C 450.486,229.97 450.819,234.637 450.5,239.5C 449.539,241.265 449.205,243.265 449.5,245.5C 448.512,250.64 448.179,255.974 448.5,261.5C 445.911,261.539 443.911,260.539 442.5,258.5C 443.583,258.539 444.583,258.873 445.5,259.5C 446.251,258.624 446.751,257.624 447,256.5C 447.373,250.821 447.873,245.155 448.5,239.5C 448.448,236.063 447.281,233.063 445,230.5C 444.505,228.527 444.338,226.527 444.5,224.5C 446.216,224.629 447.883,224.962 449.5,225.5 Z"/></g>
<g><path style="opacity:1" fill="#38110f" d="M 411.5,219.5 C 410.033,219.894 408.533,220.227 407,220.5C 405.674,220.245 404.674,219.578 404,218.5C 402.266,219.249 400.433,219.749 398.5,220C 398.043,220.414 397.709,220.914 397.5,221.5C 398.853,222.524 399.52,223.857 399.5,225.5C 395.846,223.669 392.513,221.336 389.5,218.5C 389.167,220.833 388.833,223.167 388.5,225.5C 388.315,229.141 388.981,232.474 390.5,235.5C 390.781,239.188 391.281,242.855 392,246.5C 393.183,245.269 394.349,245.269 395.5,246.5C 396.015,249.743 397.348,252.576 399.5,255C 401.047,255.333 402.38,254.833 403.5,253.5C 404.92,255.22 406.253,257.054 407.5,259C 410.5,259.667 413.5,259.667 416.5,259C 417.305,257.887 417.972,256.721 418.5,255.5C 419.117,255.389 419.617,255.056 420,254.5C 420.497,251.854 420.664,249.187 420.5,246.5C 418.319,246.716 416.653,245.883 415.5,244C 416.793,243.51 418.127,243.343 419.5,243.5C 426.807,244.594 434.14,244.761 441.5,244C 440.643,244.689 439.977,245.522 439.5,246.5C 444.287,257.295 445.621,256.629 443.5,244.5C 445.314,241.607 445.647,238.607 444.5,235.5C 443.675,234.614 442.675,234.281 441.5,234.5C 433.086,235.983 424.752,235.65 416.5,233.5C 414.214,233.405 412.214,232.738 410.5,231.5C 415.634,230.606 420.634,231.439 425.5,234C 430.372,234.825 434.872,233.991 439,231.5C 439.45,229.481 440.283,227.648 441.5,226C 441.272,225.601 440.938,225.435 440.5,225.5C 440.5,224.5 440.5,223.5 440.5,222.5C 438.265,222.205 436.265,222.539 434.5,223.5C 434.082,224.222 433.416,224.722 432.5,225C 426.651,225.818 420.985,225.652 415.5,224.5C 420.844,224.666 426.177,224.499 431.5,224C 428.833,223.333 426.167,222.667 423.5,222C 424.416,221.722 425.082,221.222 425.5,220.5C 429.529,220.851 433.362,220.185 437,218.5C 438.3,219.707 439.8,220.374 441.5,220.5C 441.281,219.325 441.614,218.325 442.5,217.5C 444.868,218.889 447.201,220.222 449.5,221.5C 448.737,222.268 447.737,222.768 446.5,223C 447.942,223.377 448.942,224.21 449.5,225.5C 447.883,224.962 446.216,224.629 444.5,224.5C 444.338,226.527 444.505,228.527 445,230.5C 447.281,233.063 448.448,236.063 448.5,239.5C 447.873,245.155 447.373,250.821 447,256.5C 446.751,257.624 446.251,258.624 445.5,259.5C 444.583,258.873 443.583,258.539 442.5,258.5C 441.488,257.128 440.488,255.795 439.5,254.5C 438.639,252.614 437.639,250.78 436.5,249C 432.152,248.535 427.819,248.035 423.5,247.5C 424.546,249.882 424.546,252.215 423.5,254.5C 421.109,262.703 415.776,265.536 407.5,263C 405.383,261.269 403.883,259.102 403,256.5C 402.094,258.612 400.594,259.445 398.5,259C 395.688,256.713 393.688,253.879 392.5,250.5C 391.735,251.612 390.735,252.279 389.5,252.5C 386.363,242.095 384.697,231.428 384.5,220.5C 383.109,221.645 381.776,221.645 380.5,220.5C 384.992,213.719 391.325,210.885 399.5,212C 396.237,212.869 395.904,214.203 398.5,216C 403.077,216.725 407.41,217.892 411.5,219.5 Z M 403.5,223.5 C 403.842,222.662 404.508,222.328 405.5,222.5C 408.273,223.657 411.273,224.324 414.5,224.5C 414.833,224.5 415.167,224.5 415.5,224.5C 420.985,225.652 426.651,225.818 432.5,225C 433.416,224.722 434.082,224.222 434.5,223.5C 436.781,223.077 438.448,223.744 439.5,225.5C 438.776,227.218 438.109,229.052 437.5,231C 430.384,231.825 423.384,231.325 416.5,229.5C 415.486,228.326 414.153,227.66 412.5,227.5C 409.572,226.183 406.572,224.85 403.5,223.5 Z"/></g>
<g><path style="opacity:1" fill="#d9a789" d="M 399.5,225.5 C 399.833,226.167 400.167,226.833 400.5,227.5C 399.883,227.611 399.383,227.944 399,228.5C 396.042,227.039 393.542,225.039 391.5,222.5C 390.508,226.783 390.174,231.116 390.5,235.5C 388.981,232.474 388.315,229.141 388.5,225.5C 388.833,223.167 389.167,220.833 389.5,218.5C 392.513,221.336 395.846,223.669 399.5,225.5 Z"/></g>
<g><path style="opacity:1" fill="#b49798" d="M 434.5,223.5 C 436.265,222.539 438.265,222.205 440.5,222.5C 440.5,223.5 440.5,224.5 440.5,225.5C 440.167,225.5 439.833,225.5 439.5,225.5C 438.448,223.744 436.781,223.077 434.5,223.5 Z"/></g>
<g><path style="opacity:1" fill="#2a0e10" d="M 411.5,219.5 C 412.833,219.5 414.167,219.5 415.5,219.5C 418.625,220.479 421.958,220.813 425.5,220.5C 425.082,221.222 424.416,221.722 423.5,222C 426.167,222.667 428.833,223.333 431.5,224C 426.177,224.499 420.844,224.666 415.5,224.5C 415.167,224.5 414.833,224.5 414.5,224.5C 411.829,222.882 408.829,222.215 405.5,222.5C 404.359,221.661 403.026,220.994 401.5,220.5C 400.361,222.396 401.027,223.396 403.5,223.5C 406.572,224.85 409.572,226.183 412.5,227.5C 413.287,229.104 414.62,229.771 416.5,229.5C 423.384,231.325 430.384,231.825 437.5,231C 438.109,229.052 438.776,227.218 439.5,225.5C 439.833,225.5 440.167,225.5 440.5,225.5C 440.938,225.435 441.272,225.601 441.5,226C 440.283,227.648 439.45,229.481 439,231.5C 434.872,233.991 430.372,234.825 425.5,234C 420.634,231.439 415.634,230.606 410.5,231.5C 407.251,229.972 403.918,228.639 400.5,227.5C 400.167,226.833 399.833,226.167 399.5,225.5C 399.52,223.857 398.853,222.524 397.5,221.5C 397.709,220.914 398.043,220.414 398.5,220C 400.433,219.749 402.266,219.249 404,218.5C 404.674,219.578 405.674,220.245 407,220.5C 408.533,220.227 410.033,219.894 411.5,219.5 Z"/></g>
<g><path style="opacity:1" fill="#9a8685" d="M 412.5,227.5 C 414.153,227.66 415.486,228.326 416.5,229.5C 414.62,229.771 413.287,229.104 412.5,227.5 Z"/></g>
<g><path style="opacity:1" fill="#988a8a" d="M 405.5,222.5 C 408.829,222.215 411.829,222.882 414.5,224.5C 411.273,224.324 408.273,223.657 405.5,222.5 Z"/></g>
<g><path style="opacity:1" fill="#8b615b" d="M 405.5,222.5 C 404.508,222.328 403.842,222.662 403.5,223.5C 401.027,223.396 400.361,222.396 401.5,220.5C 403.026,220.994 404.359,221.661 405.5,222.5 Z"/></g>
<g><path style="opacity:1" fill="#865741" d="M 416.5,233.5 C 424.752,235.65 433.086,235.983 441.5,234.5C 441.082,235.222 440.416,235.722 439.5,236C 433.833,236.667 428.167,236.667 422.5,236C 420.277,235.434 418.277,234.6 416.5,233.5 Z"/></g>
<g><path style="opacity:1" fill="#f1b88b" d="M 400.5,227.5 C 403.918,228.639 407.251,229.972 410.5,231.5C 412.214,232.738 414.214,233.405 416.5,233.5C 418.277,234.6 420.277,235.434 422.5,236C 428.167,236.667 433.833,236.667 439.5,236C 440.416,235.722 441.082,235.222 441.5,234.5C 442.675,234.281 443.675,234.614 444.5,235.5C 445.647,238.607 445.314,241.607 443.5,244.5C 445.621,256.629 444.287,257.295 439.5,246.5C 439.977,245.522 440.643,244.689 441.5,244C 434.14,244.761 426.807,244.594 419.5,243.5C 416.062,241.985 413.728,243.152 412.5,247C 413.745,249.749 415.745,251.582 418.5,252.5C 418.5,253.5 418.5,254.5 418.5,255.5C 417.972,256.721 417.305,257.887 416.5,259C 413.5,259.667 410.5,259.667 407.5,259C 406.253,257.054 404.92,255.22 403.5,253.5C 402.38,254.833 401.047,255.333 399.5,255C 397.348,252.576 396.015,249.743 395.5,246.5C 394.349,245.269 393.183,245.269 392,246.5C 391.281,242.855 390.781,239.188 390.5,235.5C 390.174,231.116 390.508,226.783 391.5,222.5C 393.542,225.039 396.042,227.039 399,228.5C 399.383,227.944 399.883,227.611 400.5,227.5 Z"/></g>
<g><path style="opacity:1" fill="#8e807b" d="M 456.5,237.5 C 457.612,239.599 458.279,241.933 458.5,244.5C 456.837,242.562 456.171,240.228 456.5,237.5 Z"/></g>
<g><path style="opacity:1" fill="#300a0b" d="M 283.5,166.5 C 283.5,166.833 283.5,167.167 283.5,167.5C 281.588,173.581 281.088,179.914 282,186.5C 284.859,194.892 289.692,201.892 296.5,207.5C 301.736,214.628 307.736,215.295 314.5,209.5C 315.577,207.271 316.244,204.937 316.5,202.5C 318.328,198.015 319.328,193.348 319.5,188.5C 320.209,187.596 321.209,187.263 322.5,187.5C 322.666,192.179 322.499,196.845 322,201.5C 319.469,208.761 317.135,216.094 315,223.5C 312.259,228.048 310.092,232.881 308.5,238C 308.833,238.5 309.167,239 309.5,239.5C 311.001,238.248 312.668,237.248 314.5,236.5C 314.833,237.167 315.167,237.833 315.5,238.5C 313.238,246.768 313.072,255.101 315,263.5C 316.812,268.435 318.312,273.435 319.5,278.5C 320.5,278.5 321.5,278.5 322.5,278.5C 323.707,274.045 325.207,269.712 327,265.5C 327.4,274.212 330.233,281.879 335.5,288.5C 339.052,292.647 342.718,296.814 346.5,301C 352.024,304.78 357.69,308.28 363.5,311.5C 364.262,308.324 363.929,305.158 362.5,302C 362.833,301.5 363.167,301 363.5,300.5C 366.024,302.19 368.024,304.357 369.5,307C 383.055,317.527 398.222,324.694 415,328.5C 415.667,327.167 415.667,325.833 415,324.5C 411.082,322.059 409.582,318.726 410.5,314.5C 413.594,318.217 416.927,321.717 420.5,325C 426.01,327.85 431.51,330.684 437,333.5C 449.585,324.006 456.752,311.34 458.5,295.5C 459.289,298.905 460.289,302.239 461.5,305.5C 462.298,305.043 462.631,304.376 462.5,303.5C 465.513,296.271 466.18,288.937 464.5,281.5C 464.107,279.716 463.441,278.05 462.5,276.5C 463.75,276.577 464.583,277.244 465,278.5C 465.725,276.842 466.892,276.342 468.5,277C 467.707,280.111 467.874,283.277 469,286.5C 469.667,287.833 470.333,287.833 471,286.5C 472.193,291.152 471.36,295.319 468.5,299C 469.345,300.558 468.679,301.558 466.5,302C 468.891,302.691 468.891,303.691 466.5,305C 466.854,306.626 466.854,308.459 466.5,310.5C 465.559,312.05 464.893,313.716 464.5,315.5C 463.214,318.117 461.547,320.45 459.5,322.5C 458.749,321.624 458.249,320.624 458,319.5C 456.988,322.202 455.488,324.535 453.5,326.5C 451.738,327.262 450.738,328.596 450.5,330.5C 449.167,332.5 447.5,334.167 445.5,335.5C 443.5,335.5 442.5,336.5 442.5,338.5C 440.564,339.259 438.731,340.259 437,341.5C 433.878,339.738 430.711,338.071 427.5,336.5C 426.5,337.167 425.5,337.833 424.5,338.5C 421.689,337.92 419.023,337.254 416.5,336.5C 414.039,335.469 411.373,334.802 408.5,334.5C 398.907,333.213 390.073,329.88 382,324.5C 380.401,325.071 379.234,326.071 378.5,327.5C 376.413,328.585 375.08,330.251 374.5,332.5C 373.404,335.032 372.071,337.365 370.5,339.5C 369.527,340.791 368.527,340.791 367.5,339.5C 366.186,340.313 365.019,341.313 364,342.5C 363.086,341.346 362.253,341.513 361.5,343C 362.167,343.333 362.833,343.667 363.5,344C 360.594,345.318 357.594,345.652 354.5,345C 354.957,344.586 355.291,344.086 355.5,343.5C 353.65,342.758 352.984,341.758 353.5,340.5C 351.889,341.32 351.222,342.654 351.5,344.5C 349.09,343.617 346.757,342.45 344.5,341C 341.183,340.502 337.85,340.335 334.5,340.5C 332.421,340.029 330.421,339.363 328.5,338.5C 327.402,337.603 327.402,336.77 328.5,336C 326.285,334.956 323.952,334.29 321.5,334C 320.167,333.333 320.167,332.667 321.5,332C 318.555,330.869 315.555,330.036 312.5,329.5C 308.975,328.241 305.975,326.241 303.5,323.5C 303.027,322.094 302.027,321.427 300.5,321.5C 299.738,319.738 298.404,318.738 296.5,318.5C 295.833,317.833 295.167,317.167 294.5,316.5C 293.738,314.738 292.404,313.738 290.5,313.5C 288.5,312.167 286.833,310.5 285.5,308.5C 284.738,306.738 283.404,305.738 281.5,305.5C 280.5,304.167 279.5,302.833 278.5,301.5C 277.5,299.833 276.167,298.5 274.5,297.5C 272.738,296.738 271.738,295.404 271.5,293.5C 270.5,291.833 269.167,290.5 267.5,289.5C 261.851,283.541 257.185,276.875 253.5,269.5C 255.412,267.343 257.079,265.009 258.5,262.5C 258.328,261.508 258.662,260.842 259.5,260.5C 261.326,258.853 262.66,256.853 263.5,254.5C 265.262,250.638 267.262,246.972 269.5,243.5C 270.906,243.027 271.573,242.027 271.5,240.5C 271.472,238.418 272.139,236.584 273.5,235C 270.833,234.333 268.167,233.667 265.5,233C 263.673,232.101 262.34,230.767 261.5,229C 263.767,226.253 265.767,223.42 267.5,220.5C 268.404,219.791 268.737,218.791 268.5,217.5C 266.5,217.5 264.5,217.5 262.5,217.5C 258.755,217.797 256.089,216.297 254.5,213C 255.985,210.683 257.652,208.516 259.5,206.5C 260.906,206.027 261.573,205.027 261.5,203.5C 261.5,202.833 261.833,202.5 262.5,202.5C 265.271,201.227 266.938,202.227 267.5,205.5C 266.933,207.03 266.267,208.53 265.5,210C 268.996,210.695 272.33,210.195 275.5,208.5C 276.167,214.707 274.833,220.541 271.5,226C 271.645,226.772 271.978,227.439 272.5,228C 283.631,228.378 289.631,222.878 290.5,211.5C 286.085,205.007 281.918,198.34 278,191.5C 276.576,185.224 276.242,178.891 277,172.5C 279.325,159.828 286.825,153.994 299.5,155C 302.167,156 302.167,157 299.5,158C 295.106,158.303 290.773,158.97 286.5,160C 285.809,161.067 285.309,162.234 285,163.5C 284.667,162.833 284.333,162.167 284,161.5C 283.506,163.134 283.34,164.801 283.5,166.5 Z"/></g>
<g><path style="opacity:1" fill="#c97b6d" d="M 302.5,237.5 C 301.458,236.209 300.292,236.209 299,237.5C 294.843,232.076 291.677,232.743 289.5,239.5C 286.916,241.472 283.916,242.472 280.5,242.5C 279.833,242.5 279.167,242.5 278.5,242.5C 278.731,236.25 281.731,232.084 287.5,230C 291.722,226.505 293.722,222.005 293.5,216.5C 296.14,216.954 298.473,218.121 300.5,220C 303.877,220.369 307.21,220.369 310.5,220C 307.672,225.818 305.006,231.652 302.5,237.5 Z"/></g>
<g><path style="opacity:1" fill="#c57c6d" d="M 316.5,202.5 C 316.244,204.937 315.577,207.271 314.5,209.5C 307.736,215.295 301.736,214.628 296.5,207.5C 300.182,207.665 303.848,207.499 307.5,207C 310.193,204.788 313.193,203.288 316.5,202.5 Z"/></g>
<g><path style="opacity:1" fill="#a69292" d="M 271.5,240.5 C 271.573,242.027 270.906,243.027 269.5,243.5C 269.427,241.973 270.094,240.973 271.5,240.5 Z"/></g>
<g><path style="opacity:1" fill="#88532e" d="M 335.5,188.5 C 336.612,194.929 338.446,201.262 341,207.5C 341.667,208.833 342.333,208.833 343,207.5C 343.098,205.381 343.931,203.714 345.5,202.5C 346.44,205.803 347.273,209.136 348,212.5C 348.875,215.215 350.708,216.548 353.5,216.5C 353.383,214.516 354.05,212.85 355.5,211.5C 357.175,214.85 358.842,218.184 360.5,221.5C 360.892,223.179 361.392,224.846 362,226.5C 364.975,227.732 367.475,229.566 369.5,232C 368.998,234.588 369.665,237.088 371.5,239.5C 372.086,239.291 372.586,238.957 373,238.5C 373.507,231.772 374.34,225.105 375.5,218.5C 375.833,218.167 376.167,217.833 376.5,217.5C 377.262,218.628 377.929,219.795 378.5,221C 376.729,221.535 376.396,222.369 377.5,223.5C 379.818,223.033 381.985,223.033 384,223.5C 384.709,227.868 384.542,232.201 383.5,236.5C 383.76,238.187 384.427,239.687 385.5,241C 384.941,241.725 384.608,242.558 384.5,243.5C 386.008,246.801 387.675,249.801 389.5,252.5C 390.735,252.279 391.735,251.612 392.5,250.5C 393.688,253.879 395.688,256.713 398.5,259C 400.594,259.445 402.094,258.612 403,256.5C 403.883,259.102 405.383,261.269 407.5,263C 415.776,265.536 421.109,262.703 423.5,254.5C 426.096,255.265 428.763,255.599 431.5,255.5C 431.231,257.429 431.731,259.095 433,260.5C 433.764,256.901 435.93,254.901 439.5,254.5C 440.488,255.795 441.488,257.128 442.5,258.5C 443.911,260.539 445.911,261.539 448.5,261.5C 448.179,255.974 448.512,250.64 449.5,245.5C 448.943,249.634 449.943,253.301 452.5,256.5C 450.816,257.854 450.316,259.521 451,261.5C 456.999,272.17 461.332,283.503 464,295.5C 464.499,290.845 464.666,286.179 464.5,281.5C 466.18,288.937 465.513,296.271 462.5,303.5C 461.356,299.028 460.523,294.362 460,289.5C 458,286.833 456,284.167 454,281.5C 454.487,292.879 450.987,302.879 443.5,311.5C 442.634,303.825 440.634,296.491 437.5,289.5C 436.775,297.341 434.442,304.674 430.5,311.5C 429.833,311.833 429.167,312.167 428.5,312.5C 415.523,307.698 405.356,299.365 398,287.5C 397.333,289.833 397.333,292.167 398,294.5C 399.136,297.096 399.969,299.763 400.5,302.5C 399.448,302.649 398.448,302.483 397.5,302C 392.806,297.408 388.472,292.575 384.5,287.5C 383.236,291.18 383.236,294.847 384.5,298.5C 383.5,299.833 382.5,299.833 381.5,298.5C 378.19,294.022 374.69,289.689 371,285.5C 367.968,280.965 365.135,276.298 362.5,271.5C 361.914,271.709 361.414,272.043 361,272.5C 360.667,277.167 360.333,281.833 360,286.5C 351.669,276.849 347.669,265.515 348,252.5C 347.333,254.5 346,255.833 344,256.5C 343.378,260.612 342.378,264.612 341,268.5C 338.461,261.054 336.961,253.388 336.5,245.5C 332.883,248.064 330.216,251.397 328.5,255.5C 324.709,245.276 325.042,235.109 329.5,225C 328.824,223.317 327.824,223.15 326.5,224.5C 325.781,222.683 324.781,222.016 323.5,222.5C 324.977,218.422 325.477,214.089 325,209.5C 325.958,206.426 327.125,203.426 328.5,200.5C 328.154,199.304 327.654,199.304 327,200.5C 326.833,199 326.667,197.5 326.5,196C 326.984,190.505 327.984,184.838 329.5,179C 327.999,172.952 328.499,167.452 331,162.5C 331.333,163.167 331.667,163.833 332,164.5C 330.886,170.765 331.386,176.932 333.5,183C 333.167,184 332.833,185 332.5,186C 333.622,186.147 334.622,186.981 335.5,188.5 Z"/></g>
<g><path style="opacity:1" fill="#c4806d" d="M 419.5,243.5 C 418.127,243.343 416.793,243.51 415.5,244C 416.653,245.883 418.319,246.716 420.5,246.5C 420.664,249.187 420.497,251.854 420,254.5C 419.617,255.056 419.117,255.389 418.5,255.5C 418.5,254.5 418.5,253.5 418.5,252.5C 415.745,251.582 413.745,249.749 412.5,247C 413.728,243.152 416.062,241.985 419.5,243.5 Z"/></g>
<g><path style="opacity:1" fill="#593120" d="M 439.5,254.5 C 435.93,254.901 433.764,256.901 433,260.5C 431.731,259.095 431.231,257.429 431.5,255.5C 428.763,255.599 426.096,255.265 423.5,254.5C 424.546,252.215 424.546,249.882 423.5,247.5C 427.819,248.035 432.152,248.535 436.5,249C 437.639,250.78 438.639,252.614 439.5,254.5 Z"/></g>
<g><path style="opacity:1" fill="#f0dbc4" d="M 278.5,242.5 C 279.167,242.5 279.833,242.5 280.5,242.5C 282.367,244.812 282.867,247.479 282,250.5C 278.333,255.5 274.667,260.5 271,265.5C 268.582,267.768 266.082,269.768 263.5,271.5C 262.314,269.806 262.481,268.139 264,266.5C 269.599,258.971 274.432,250.971 278.5,242.5 Z"/></g>
<g><path style="opacity:1" fill="#b2a09f" d="M 263.5,254.5 C 262.66,256.853 261.326,258.853 259.5,260.5C 259.845,257.802 261.178,255.802 263.5,254.5 Z"/></g>
<g><path style="opacity:1" fill="#9b9090" d="M 258.5,262.5 C 257.079,265.009 255.412,267.343 253.5,269.5C 252.475,269.103 252.308,268.437 253,267.5C 254.426,265.234 256.26,263.568 258.5,262.5 Z"/></g>
<g><path style="opacity:1" fill="#5c321e" d="M 462.5,303.5 C 462.631,304.376 462.298,305.043 461.5,305.5C 460.289,302.239 459.289,298.905 458.5,295.5C 456.752,311.34 449.585,324.006 437,333.5C 431.51,330.684 426.01,327.85 420.5,325C 416.927,321.717 413.594,318.217 410.5,314.5C 409.582,318.726 411.082,322.059 415,324.5C 415.667,325.833 415.667,327.167 415,328.5C 398.222,324.694 383.055,317.527 369.5,307C 368.024,304.357 366.024,302.19 363.5,300.5C 363.167,301 362.833,301.5 362.5,302C 363.929,305.158 364.262,308.324 363.5,311.5C 357.69,308.28 352.024,304.78 346.5,301C 342.718,296.814 339.052,292.647 335.5,288.5C 334.829,287.153 334.829,285.986 335.5,285C 333.875,284.147 333.542,283.147 334.5,282C 331.582,275.239 329.082,268.406 327,261.5C 328.087,263.932 328.587,263.598 328.5,260.5C 327.448,260.649 326.448,260.483 325.5,260C 324.469,251.725 324.469,243.058 325.5,234C 324.055,231.876 322.721,229.709 321.5,227.5C 323.411,226.925 325.078,225.925 326.5,224.5C 327.824,223.15 328.824,223.317 329.5,225C 325.042,235.109 324.709,245.276 328.5,255.5C 330.216,251.397 332.883,248.064 336.5,245.5C 336.961,253.388 338.461,261.054 341,268.5C 342.378,264.612 343.378,260.612 344,256.5C 346,255.833 347.333,254.5 348,252.5C 347.669,265.515 351.669,276.849 360,286.5C 360.333,281.833 360.667,277.167 361,272.5C 361.414,272.043 361.914,271.709 362.5,271.5C 365.135,276.298 367.968,280.965 371,285.5C 374.69,289.689 378.19,294.022 381.5,298.5C 382.5,299.833 383.5,299.833 384.5,298.5C 383.236,294.847 383.236,291.18 384.5,287.5C 388.472,292.575 392.806,297.408 397.5,302C 398.448,302.483 399.448,302.649 400.5,302.5C 399.969,299.763 399.136,297.096 398,294.5C 397.333,292.167 397.333,289.833 398,287.5C 405.356,299.365 415.523,307.698 428.5,312.5C 429.167,312.167 429.833,311.833 430.5,311.5C 434.442,304.674 436.775,297.341 437.5,289.5C 440.634,296.491 442.634,303.825 443.5,311.5C 450.987,302.879 454.487,292.879 454,281.5C 456,284.167 458,286.833 460,289.5C 460.523,294.362 461.356,299.028 462.5,303.5 Z"/></g>
<g><path style="opacity:1" fill="#f7ba8f" d="M 294.5,306.5 C 282.395,296.396 272.062,284.729 263.5,271.5C 266.082,269.768 268.582,267.768 271,265.5C 274.667,260.5 278.333,255.5 282,250.5C 282.867,247.479 282.367,244.812 280.5,242.5C 283.916,242.472 286.916,241.472 289.5,239.5C 291.297,238.27 293.297,237.604 295.5,237.5C 293.359,255.874 294.359,274.041 298.5,292C 297.862,297.152 297.362,302.319 297,307.5C 296.329,306.748 295.496,306.414 294.5,306.5 Z"/></g>
<g><path style="opacity:1" fill="#b9835b" d="M 450.5,239.5 C 451.729,246.308 454.395,252.641 458.5,258.5C 457.167,259.167 455.833,259.833 454.5,260.5C 457.164,265.829 459.831,271.162 462.5,276.5C 463.441,278.05 464.107,279.716 464.5,281.5C 464.666,286.179 464.499,290.845 464,295.5C 461.332,283.503 456.999,272.17 451,261.5C 450.316,259.521 450.816,257.854 452.5,256.5C 449.943,253.301 448.943,249.634 449.5,245.5C 449.205,243.265 449.539,241.265 450.5,239.5 Z"/></g>
<g><path style="opacity:1" fill="#7e6669" d="M 469.5,276.5 C 471.267,278.792 472.267,281.458 472.5,284.5C 470.733,282.208 469.733,279.542 469.5,276.5 Z"/></g>
<g><path style="opacity:1" fill="#d18170" d="M 302.5,237.5 C 302.5,237.833 302.5,238.167 302.5,238.5C 301.05,237.342 300.05,237.842 299.5,240C 300.565,245.074 301.231,250.241 301.5,255.5C 302.833,255.5 304.167,255.5 305.5,255.5C 307.068,265.435 309.735,275.102 313.5,284.5C 314.695,286.297 316.362,287.297 318.5,287.5C 318.33,288.822 318.663,289.989 319.5,291C 321.833,291.333 324.167,291.667 326.5,292C 327.396,296.051 329.396,299.384 332.5,302C 332.167,302.333 331.833,302.667 331.5,303C 332.563,304.188 333.897,304.688 335.5,304.5C 335.238,305.978 335.571,307.311 336.5,308.5C 340.705,311.38 344.371,314.88 347.5,319C 348.448,319.483 349.448,319.649 350.5,319.5C 355.628,323.569 360.961,327.402 366.5,331C 363.722,333.603 362.056,336.77 361.5,340.5C 353.896,339.799 346.562,337.966 339.5,335C 335.493,333.663 331.827,331.83 328.5,329.5C 329.239,329.631 329.906,329.464 330.5,329C 327.612,325.778 325.112,322.278 323,318.5C 318.815,307.933 314.648,297.433 310.5,287C 309.551,286.383 308.718,286.549 308,287.5C 307.242,297.534 307.409,307.534 308.5,317.5C 303.235,314.565 298.568,310.899 294.5,306.5C 295.496,306.414 296.329,306.748 297,307.5C 297.362,302.319 297.862,297.152 298.5,292C 294.359,274.041 293.359,255.874 295.5,237.5C 293.297,237.604 291.297,238.27 289.5,239.5C 291.677,232.743 294.843,232.076 299,237.5C 300.292,236.209 301.458,236.209 302.5,237.5 Z"/></g>
<g><path style="opacity:1" fill="#bf7b71" d="M 302.5,238.5 C 302.173,243.544 302.506,248.544 303.5,253.5C 304.5,251.833 305.833,250.5 307.5,249.5C 308.33,255.138 308.83,260.804 309,266.5C 311.715,275.605 316.215,283.605 322.5,290.5C 323.934,288.78 324.767,286.78 325,284.5C 331.053,297.934 339.553,309.6 350.5,319.5C 349.448,319.649 348.448,319.483 347.5,319C 344.371,314.88 340.705,311.38 336.5,308.5C 335.571,307.311 335.238,305.978 335.5,304.5C 333.897,304.688 332.563,304.188 331.5,303C 331.833,302.667 332.167,302.333 332.5,302C 329.396,299.384 327.396,296.051 326.5,292C 324.167,291.667 321.833,291.333 319.5,291C 318.663,289.989 318.33,288.822 318.5,287.5C 316.362,287.297 314.695,286.297 313.5,284.5C 309.735,275.102 307.068,265.435 305.5,255.5C 304.167,255.5 302.833,255.5 301.5,255.5C 301.231,250.241 300.565,245.074 299.5,240C 300.05,237.842 301.05,237.342 302.5,238.5 Z"/></g>
<g><path style="opacity:1" fill="#bca6a5" d="M 267.5,289.5 C 269.167,290.5 270.5,291.833 271.5,293.5C 269.167,293.167 267.833,291.833 267.5,289.5 Z"/></g>
<g><path style="opacity:1" fill="#8f8171" d="M 472.5,296.5 C 472.741,298.898 472.074,300.898 470.5,302.5C 470.595,300.214 471.262,298.214 472.5,296.5 Z"/></g>
<g><path style="opacity:1" fill="#cbbfbf" d="M 274.5,297.5 C 276.167,298.5 277.5,299.833 278.5,301.5C 276.167,301.167 274.833,299.833 274.5,297.5 Z"/></g>
<g><path style="opacity:1" fill="#baa7a7" d="M 281.5,305.5 C 283.404,305.738 284.738,306.738 285.5,308.5C 283.596,308.262 282.262,307.262 281.5,305.5 Z"/></g>
<g><path style="opacity:1" fill="#f1b48c" d="M 328.5,329.5 C 321.167,326.505 314.5,322.505 308.5,317.5C 307.409,307.534 307.242,297.534 308,287.5C 308.718,286.549 309.551,286.383 310.5,287C 314.648,297.433 318.815,307.933 323,318.5C 325.112,322.278 327.612,325.778 330.5,329C 329.906,329.464 329.239,329.631 328.5,329.5 Z"/></g>
<g><path style="opacity:1" fill="#aa9b9b" d="M 466.5,310.5 C 466.833,310.5 467.167,310.5 467.5,310.5C 467.25,312.674 466.25,314.341 464.5,315.5C 464.893,313.716 465.559,312.05 466.5,310.5 Z"/></g>
<g><path style="opacity:1" fill="#a59392" d="M 290.5,313.5 C 292.404,313.738 293.738,314.738 294.5,316.5C 292.596,316.262 291.262,315.262 290.5,313.5 Z"/></g>
<g><path style="opacity:1" fill="#ac9599" d="M 296.5,318.5 C 298.404,318.738 299.738,319.738 300.5,321.5C 298.596,321.262 297.262,320.262 296.5,318.5 Z"/></g>
<g><path style="opacity:1" fill="#c0aaab" d="M 300.5,321.5 C 302.027,321.427 303.027,322.094 303.5,323.5C 301.973,323.573 300.973,322.906 300.5,321.5 Z"/></g>
<g><path style="opacity:1" fill="#b9afaf" d="M 453.5,326.5 C 453.262,328.404 452.262,329.738 450.5,330.5C 450.738,328.596 451.738,327.262 453.5,326.5 Z"/></g>
<g><path style="opacity:1" fill="#c6bcbc" d="M 378.5,327.5 C 377.92,329.749 376.587,331.415 374.5,332.5C 375.08,330.251 376.413,328.585 378.5,327.5 Z"/></g>
<g><path style="opacity:1" fill="#584040" d="M 312.5,329.5 C 315.555,330.036 318.555,330.869 321.5,332C 320.167,332.667 320.167,333.333 321.5,334C 323.952,334.29 326.285,334.956 328.5,336C 327.402,336.77 327.402,337.603 328.5,338.5C 322.629,336.26 317.296,333.26 312.5,329.5 Z"/></g>
<g><path style="opacity:1" fill="#a69999" d="M 408.5,334.5 C 411.373,334.802 414.039,335.469 416.5,336.5C 413.447,336.889 410.78,336.223 408.5,334.5 Z"/></g>
<g><path style="opacity:1" fill="#bdacac" d="M 445.5,335.5 C 444.833,336.833 443.833,337.833 442.5,338.5C 442.5,336.5 443.5,335.5 445.5,335.5 Z"/></g>
<g><path style="opacity:1" fill="#371b1e" d="M 370.5,339.5 C 369.476,343.362 367.143,346.195 363.5,348C 357.93,348.099 352.597,347.266 347.5,345.5C 345.786,344.262 343.786,343.595 341.5,343.5C 338.759,343.293 336.426,342.293 334.5,340.5C 337.85,340.335 341.183,340.502 344.5,341C 346.757,342.45 349.09,343.617 351.5,344.5C 351.222,342.654 351.889,341.32 353.5,340.5C 352.984,341.758 353.65,342.758 355.5,343.5C 355.291,344.086 354.957,344.586 354.5,345C 357.594,345.652 360.594,345.318 363.5,344C 362.833,343.667 362.167,343.333 361.5,343C 362.253,341.513 363.086,341.346 364,342.5C 365.019,341.313 366.186,340.313 367.5,339.5C 368.527,340.791 369.527,340.791 370.5,339.5 Z"/></g>
<g><path style="opacity:1" fill="#cfbfbf" d="M 341.5,343.5 C 343.786,343.595 345.786,344.262 347.5,345.5C 345.102,345.741 343.102,345.074 341.5,343.5 Z"/></g>
</svg>
